<svg width="222" height="159" viewBox="0 0 222 159" fill="none" xmlns="http://www.w3.org/2000/svg">
<path fill-rule="evenodd" clip-rule="evenodd" d="M24.23 0.688L23.48 1.375L23.486 53.476C23.491 92.879 23.427 105.84 23.222 106.657C22.989 107.582 22.522 108.18 19.965 110.831C15.636 115.318 10.343 120.689 7.65301 123.324C1.65601 129.198 -0.00399279 132.752 7.20691e-06 139.714C0.00400721 145.965 1.32401 149.009 5.86401 153.239C9.66701 156.781 12.237 157.863 17.844 158.281C22.818 158.652 204.087 158.474 206.118 158.096C212.004 157.002 215.968 153.985 219.666 147.785C221.704 144.367 221.885 135.287 219.986 131.767C219.771 131.367 219.298 130.49 218.937 129.818C217.842 127.783 215.871 125.384 213.072 122.682C211.61 121.27 208.867 118.516 206.975 116.562C205.084 114.608 202.608 112.12 201.474 111.034C200.059 109.679 199.199 108.637 198.73 107.71L198.047 106.361L197.997 54.212C197.943 -2.585 198.017 1.262 196.959 0.611C196.217 0.154 195.775 0.151 110.597 0.0760002L24.981 0L24.23 0.688ZM180.902 16.335C181.889 16.9 181.884 16.661 181.885 59.793C181.887 106.674 182.077 102.175 180.071 102.776C179.085 103.071 42.623 103.185 41.156 102.891C40.765 102.813 40.189 102.445 39.876 102.073L39.308 101.398L39.313 59.983C39.319 12.942 39.151 16.42 41.434 16.14C43.925 15.833 180.359 16.025 180.902 16.335ZM114.758 23.944L111.469 24.069L110.931 24.744C110.585 25.179 110.297 25.996 110.123 27.037C109.974 27.926 109.608 29.755 109.308 31.101C109.009 32.447 108.659 34.558 108.531 35.791C108.216 38.828 107.939 40.49 107.283 43.266C106.978 44.559 106.612 46.802 106.469 48.252C106.197 51.028 105.649 54.709 104.883 58.911C104.63 60.298 104.208 62.98 103.945 64.871C103.682 66.762 103.219 69.238 102.917 70.373C102.614 71.507 102.149 73.931 101.883 75.759C101.617 77.588 101.105 80.785 100.745 82.865C98.507 95.807 98.51 95.813 106.441 95.332L109.78 95.129L110.29 94.37C110.57 93.952 110.909 93.024 111.042 92.307C111.176 91.59 111.441 90.281 111.631 89.398C111.821 88.516 112.276 85.834 112.641 83.439C113.007 81.043 113.582 77.536 113.92 75.645C115.852 64.838 116.764 59.297 117.007 56.878C117.158 55.381 117.635 52.441 118.066 50.345C118.498 48.248 119.062 44.779 119.32 42.636C119.579 40.493 119.982 38.017 120.217 37.135C120.57 35.807 121.068 33.01 122.182 26.103C122.353 25.045 121.073 23.954 119.662 23.954C119.11 23.954 118.52 23.924 118.352 23.886C118.184 23.849 116.567 23.875 114.758 23.944ZM79.038 40.605C78.757 40.719 75.385 44.54 73.806 46.533C72.998 47.553 71.781 49.006 68.908 52.378C66.297 55.444 64.627 57.667 64.132 58.734L63.577 59.932L64.91 61.553C65.642 62.446 66.624 63.697 67.091 64.334C67.559 64.972 68.089 65.611 68.271 65.755C68.602 66.018 71.013 68.853 73.577 71.993C79.832 79.655 79.558 79.554 84.017 75.845C87.581 72.881 87.957 71.759 86.073 69.714C85.57 69.169 84.822 68.303 84.411 67.79C84 67.277 82.838 65.88 81.829 64.686C77.537 59.604 77.461 59.276 79.935 56.523C80.472 55.925 81.216 54.979 81.587 54.422C81.957 53.866 82.687 52.946 83.209 52.378C84.391 51.092 86.497 48.365 86.883 47.621C87.338 46.745 86.722 45.232 85.534 44.305C85.009 43.896 83.833 42.914 82.919 42.124C81.698 41.068 81.081 40.688 80.588 40.688C80.22 40.688 79.781 40.644 79.613 40.591C79.445 40.538 79.186 40.544 79.038 40.605ZM139.938 41.084C139.749 41.155 138.829 41.826 137.895 42.575C136.96 43.324 135.944 44.1 135.637 44.301C135.33 44.502 134.847 45.19 134.562 45.829L134.045 46.992L134.576 48.055C134.868 48.64 135.239 49.259 135.402 49.432C136.664 50.77 140.22 55.07 141.498 56.805C143.556 59.599 143.486 59.983 140.2 63.875C139.524 64.675 138.39 66.037 137.678 66.901C136.967 67.765 135.895 69.03 135.296 69.712C133.191 72.107 133.69 73.191 138.513 76.707C141.704 79.034 142.245 78.849 146.013 74.152C146.643 73.366 147.525 72.297 147.973 71.777C148.421 71.257 149.139 70.367 149.57 69.8C150.297 68.843 152.045 66.746 153.119 65.544C153.864 64.709 155.706 62.439 156.677 61.158L157.58 59.967L156.914 58.481C156.547 57.664 155.698 56.386 155.027 55.641C154.356 54.896 153.239 53.589 152.546 52.736C151.852 51.883 150.955 50.809 150.553 50.349C148.676 48.205 147.502 46.794 146.127 45.028C143.073 41.105 141.882 40.346 139.938 41.084ZM184.446 118.956C186.907 119.478 187.667 120.063 193.704 126.072C194.845 127.208 197.618 129.939 199.865 132.141C206.052 138.203 206.705 139.883 203.612 141.786L202.499 142.471L110.625 142.499L18.752 142.527L17.682 141.9C14.62 140.106 15.05 138.203 19.465 134.013C20.213 133.303 22.843 130.722 25.31 128.277C30.931 122.707 33.922 119.953 34.952 119.399C35.732 118.981 37.879 118.965 109.107 118.853C149.451 118.79 182.563 118.714 182.689 118.685C182.815 118.656 183.605 118.778 184.446 118.956Z" fill="#333333"/>
</svg>
