<svg width="400" height="198" viewBox="0 0 400 198" fill="none" xmlns="http://www.w3.org/2000/svg">
<path fill-rule="evenodd" clip-rule="evenodd" d="M46.0014 1.30253C42.3464 2.30653 39.4384 5.29553 38.4594 9.05253C38.1874 10.0975 38.1494 20.7815 38.1494 96.5105C38.1494 188.013 38.1144 184.423 39.0164 185.509C39.3524 185.914 361.113 185.914 361.449 185.509C362.351 184.423 362.316 188.013 362.316 96.5095C362.316 20.7815 362.278 10.0975 362.005 9.05253C361.014 5.24453 358.102 2.28453 354.372 1.29153C352.758 0.862528 47.5644 0.872526 46.0014 1.30253ZM200.556 7.25753C200.771 7.60453 200.288 8.00353 200 7.71553C199.76 7.47553 199.911 7.03053 200.232 7.03053C200.333 7.03053 200.479 7.13253 200.556 7.25753ZM355.024 92.9685V173.281H199.503H43.9824V92.9685V12.6555H199.503H355.024V92.9685Z" fill="#232323"/>
<path fill-rule="evenodd" clip-rule="evenodd" d="M124.139 0.728512C165.99 0.757512 234.475 0.757512 276.326 0.728512C318.178 0.699512 283.935 0.676514 200.232 0.676514C116.529 0.676514 82.2874 0.699512 124.139 0.728512ZM39.8024 4.23451C39.4734 4.63151 39.3484 5.21251 39.6294 5.03851C39.7354 4.97251 39.7724 4.83751 39.7114 4.73751C39.6494 4.63751 39.7644 4.46351 39.9664 4.35051C40.1684 4.23751 40.2774 4.08952 40.2084 4.02052C40.1404 3.95152 39.9574 4.04851 39.8024 4.23451ZM38.2114 6.27151C38.1204 6.42652 37.9374 6.59051 37.8054 6.63551C37.6034 6.70551 13.1954 30.7425 5.1354 38.8105C2.4094 41.5385 1.2444 43.2415 0.826401 45.1085C0.687401 45.7305 0.450401 46.2875 0.299401 46.3455C0.0124009 46.4555 -0.129599 184.038 0.155401 185.104L0.281401 185.573L19.0594 185.549C29.3864 185.536 37.6724 185.482 37.4724 185.429C37.1084 185.334 36.9544 184.948 37.2804 184.948C37.3744 184.948 37.4074 184.643 37.3534 184.271C37.2834 183.796 37.2164 183.701 37.1284 183.951C37.0594 184.147 37.0204 145.147 37.0414 97.2835C37.0654 41.9825 37.0074 10.4115 36.8814 10.6765C36.7074 11.0405 36.6964 11.0275 36.7884 10.5725C36.8464 10.2865 36.9044 9.77051 36.9174 9.42651C36.9404 8.81251 36.9434 8.81051 37.1074 9.32251L37.2744 9.84351L37.3104 9.32251C37.3424 8.84151 37.3594 8.83351 37.5244 9.21851C37.7684 9.78651 37.7764 9.36852 37.5374 8.53551C37.4114 8.09651 37.4144 7.90051 37.5464 7.98151C37.6694 8.05851 37.7034 7.87551 37.6324 7.51751C37.5274 6.98751 37.5364 6.97552 37.7214 7.39552C37.8344 7.65352 37.8754 8.02851 37.8104 8.22851C37.7114 8.53651 37.7284 8.54451 37.9164 8.28051C38.0394 8.10851 38.0904 7.80851 38.0294 7.61451C37.9694 7.41951 38.0674 6.97451 38.2484 6.62451C38.5704 6.00251 38.5404 5.71552 38.2114 6.27151ZM37.4194 96.7185C37.4194 144.5 37.4434 164.016 37.4724 140.087C37.5014 116.159 37.5014 77.0645 37.4724 53.2115C37.4434 29.3595 37.4194 48.9375 37.4194 96.7185ZM36.8474 139.479C36.8184 162.94 36.7944 143.745 36.7944 96.8225C36.7944 49.9005 36.8184 30.7055 36.8474 54.1665C36.8764 77.6275 36.8764 116.018 36.8474 139.479ZM37.9414 185.538C37.9414 185.721 33.2964 185.794 19.1394 185.832L0.337401 185.883L19.0754 185.938C36.8364 185.989 38.5884 185.943 38.0834 185.438C38.0054 185.359 37.9414 185.405 37.9414 185.538ZM72.2804 185.938C90.6524 185.967 120.652 185.967 138.947 185.938C157.243 185.908 142.212 185.884 105.545 185.884C68.8784 185.884 53.9094 185.908 72.2804 185.938ZM253.009 185.938C266.625 185.967 288.844 185.967 302.384 185.938C315.925 185.908 304.784 185.884 277.628 185.884C250.472 185.884 239.394 185.908 253.009 185.938ZM336.342 185.938C341.019 185.969 348.613 185.969 353.217 185.938C357.82 185.906 353.993 185.881 344.712 185.881C335.43 185.881 331.664 185.906 336.342 185.938ZM172.524 186.415C172.524 187.493 174.123 189.486 175.369 189.96C176.156 190.26 223.362 190.213 224.575 189.912C226.124 189.527 227.378 188.356 227.827 186.875L227.969 186.406H214.321C205.448 186.406 200.629 186.333 200.545 186.198C200.249 185.72 172.524 185.934 172.524 186.415ZM200.232 188.073V189.948H188.078H175.923L175.036 189.479C174.086 188.976 173.048 187.706 172.824 186.771L172.687 186.198H186.46H200.232V188.073ZM0.238401 189.375C0.244401 192.332 0.246401 192.346 0.811401 192.883C1.4914 193.53 2.0334 193.875 1.8154 193.522C1.7024 193.34 48.4334 193.269 192.98 193.229L384.295 193.178L200.962 193.073C100.128 193.015 17.6284 192.945 17.6284 192.917C17.6284 192.887 17.6584 191.412 17.6954 189.636L17.7624 186.406H8.9974H0.232401L0.238401 189.375ZM3.7744 194.601C3.7744 194.655 4.0774 194.804 4.4464 194.933C4.8164 195.062 5.0274 195.082 4.9154 194.977C4.6784 194.755 3.7744 194.457 3.7744 194.601ZM392.212 195.99C391.949 196.103 391.91 196.169 392.107 196.169C392.279 196.169 392.607 196.088 392.837 195.99C393.099 195.877 393.138 195.811 392.941 195.811C392.769 195.811 392.441 195.891 392.212 195.99ZM9.6074 196.615C10.3204 196.843 10.8674 196.843 10.3374 196.615C10.1074 196.516 9.7324 196.438 9.5034 196.442C9.1684 196.447 9.1894 196.481 9.6074 196.615ZM389.816 196.615C389.403 196.747 389.382 196.781 389.712 196.781C389.941 196.781 390.363 196.706 390.649 196.615C391.061 196.483 391.083 196.448 390.753 196.448C390.524 196.448 390.102 196.523 389.816 196.615ZM11.0834 196.9C11.1314 196.942 11.5454 197.033 12.0034 197.103C12.5844 197.191 12.7104 197.173 12.4204 197.041C12.0204 196.86 10.9044 196.742 11.0834 196.9ZM387.732 197.031C387.32 197.163 387.298 197.198 387.628 197.198C387.857 197.198 388.279 197.122 388.566 197.031C388.978 196.898 389 196.865 388.67 196.865C388.441 196.865 388.019 196.939 387.732 197.031ZM14.5254 197.488C14.9714 197.566 42.5714 197.616 75.8574 197.595C109.144 197.575 133.284 197.533 129.503 197.504C112.831 197.371 13.7934 197.357 14.5254 197.488ZM324.295 197.448L263.462 197.553L324.191 197.589C357.592 197.609 385.342 197.55 385.857 197.459L386.795 197.292L385.962 197.317C385.503 197.331 357.753 197.39 324.295 197.448ZM169.572 197.604C186.339 197.634 213.714 197.634 230.405 197.604C247.097 197.575 233.378 197.551 199.92 197.551C166.462 197.551 152.805 197.575 169.572 197.604Z" fill="#BCBCBC"/>
<path fill-rule="evenodd" clip-rule="evenodd" d="M46.0664 1.07651C44.9314 1.40051 43.9824 1.77851 43.9824 1.90551C43.9824 1.95751 44.5214 1.79551 45.1804 1.54651L46.3784 1.09351L199.607 1.03051C314.382 0.983511 353.124 1.02751 353.982 1.20651C356.836 1.80251 359.757 4.01951 361.039 6.56051C362.426 9.30951 362.316 1.5545 362.316 96.5095C362.316 188.013 362.351 184.423 361.449 185.509C361.287 185.704 361.287 185.781 361.448 185.781C361.572 185.781 361.865 185.162 362.099 184.405C362.675 182.54 362.783 11.2385 362.21 9.03751C361.198 5.15351 357.912 1.86451 354.185 1.00551C352.675 0.657509 47.2854 0.728512 46.0664 1.07651ZM42.2964 2.94651C40.1844 4.60351 38.6524 6.99651 38.1534 9.41351C37.7034 11.5935 37.9744 183.618 38.4294 184.792C38.6404 185.336 38.9104 185.781 39.0274 185.781C39.1684 185.781 39.1644 185.688 39.0164 185.509C38.1144 184.423 38.1494 188.013 38.1494 96.5105C38.1494 20.7815 38.1874 10.0975 38.4594 9.05251C39.1284 6.48351 40.7534 4.12651 42.7434 2.83751C43.3104 2.46951 43.7744 2.13751 43.7744 2.09951C43.7744 1.88051 43.3304 2.13451 42.2964 2.94651ZM39.2804 4.99951C38.5914 5.81451 37.7894 7.50851 37.3994 8.97651C36.9744 10.5705 36.9654 182.85 37.3894 184.486L37.6714 185.573H18.8484C8.49541 185.573 0.0244141 185.643 0.0244141 185.729C0.0244141 185.894 37.7394 185.844 37.9044 185.68C37.9564 185.627 37.8454 185.037 37.6574 184.367C37.2264 182.829 37.1214 11.3025 37.5504 9.28051C37.8074 8.07051 38.7404 6.06051 39.5374 4.99951C39.8164 4.62751 40.0024 4.32251 39.9494 4.32251C39.8964 4.32251 39.5954 4.62751 39.2804 4.99951ZM199.909 7.25751C199.694 7.60451 200.177 8.00351 200.464 7.71551C200.705 7.47551 200.554 7.03051 200.232 7.03051C200.131 7.03051 199.986 7.13251 199.909 7.25751ZM186.118 185.938C193.881 185.968 206.584 185.968 214.347 185.938C222.11 185.907 215.758 185.883 200.232 185.883C184.706 185.883 178.355 185.907 186.118 185.938ZM172.824 186.771C173.048 187.706 174.086 188.976 175.036 189.479L175.923 189.948H188.078H200.232V188.073V186.198H186.46H172.687L172.824 186.771ZM1.69141 193.375C1.69141 193.453 2.83341 194.013 4.92041 194.957C7.07941 195.934 12.1634 197.134 15.0174 197.34C17.1554 197.494 383.764 197.482 385.445 197.328C389.614 196.946 398.566 194.241 398.566 193.364C398.566 193.319 309.269 193.281 200.128 193.281C90.9884 193.281 1.69141 193.323 1.69141 193.375Z" fill="#B3B3B3"/>
<path fill-rule="evenodd" clip-rule="evenodd" d="M47.4054 0.106516C45.4444 0.372516 42.7494 1.35352 43.0774 1.68152C43.1554 1.75852 43.0244 1.82252 42.7874 1.82252C42.4584 1.82252 42.3814 1.92152 42.4634 2.23652C42.5234 2.46452 42.6564 2.59852 42.7594 2.53452C42.8634 2.47152 42.8974 2.33752 42.8354 2.23752C42.7744 2.13752 42.8894 2.05952 43.0924 2.06352C43.2954 2.06752 44.0244 1.83352 44.7124 1.54352C45.3994 1.25252 46.5714 0.916515 47.3164 0.795515C49.2494 0.481515 351.124 0.483514 353.213 0.797514C357.362 1.42051 360.975 4.59452 362.188 8.68352C362.495 9.71552 362.524 17.3885 362.524 96.5095C362.524 188.927 362.567 184.599 361.644 185.729C361.474 185.937 345.078 185.99 280.924 185.99C227.305 185.99 200.459 186.059 200.545 186.198C200.629 186.333 205.448 186.406 214.321 186.406H227.969L227.827 186.875C227.378 188.356 226.124 189.527 224.575 189.912C223.362 190.213 176.156 190.26 175.369 189.96C174.123 189.486 172.524 187.493 172.524 186.415V185.99H105.779C52.4784 185.99 38.9904 185.937 38.8164 185.728C38.6974 185.584 38.5324 185.2 38.4514 184.875C38.3424 184.444 38.2544 184.359 38.1254 184.564C38.0284 184.718 37.9474 145.184 37.9464 96.6545C37.9444 43.6155 38.0194 8.51352 38.1344 8.58352C38.3334 8.70752 38.6824 7.54552 38.5914 7.06252C38.5624 6.90752 38.6384 6.84252 38.7604 6.91852C38.9784 7.05352 39.0694 6.78451 38.9934 6.22851C38.9724 6.07351 39.0504 6.00652 39.1664 6.07852C39.2834 6.15052 39.4804 6.01952 39.6044 5.78652C39.7294 5.55452 39.7904 5.36452 39.7424 5.36452C39.6934 5.36452 40.2674 4.76751 41.0184 4.03951C42.0534 3.03351 42.3484 2.62252 42.2384 2.33652C42.0014 1.71952 40.3194 3.46352 40.0214 4.63552C39.9924 4.74952 39.7974 4.96351 39.5884 5.10951C39.3564 5.27151 39.2594 5.50852 39.3394 5.71652C39.4234 5.93652 39.3884 6.00651 39.2384 5.91451C38.9724 5.74951 38.2594 7.10651 38.3034 7.69351C38.3194 7.90151 38.2544 8.07252 38.1584 8.07252C37.7534 8.07252 37.7314 12.7185 37.7344 96.5815C37.7364 181.882 37.7554 185.504 38.1934 185.233C38.3064 185.163 38.2934 185.305 38.1624 185.548L37.9264 185.99H18.9754H0.0244141V189.271V192.552L0.713414 193.102C1.40641 193.655 3.83141 194.957 4.13341 194.938C4.22241 194.932 3.63941 194.592 2.83741 194.184C0.255414 192.868 0.245414 192.85 0.238414 189.375L0.232414 186.406H8.99741H17.7624L17.6954 189.634C17.6424 192.176 17.6874 192.883 17.9064 192.967C18.0584 193.025 100.089 193.086 200.197 193.101C300.305 193.117 385.962 193.189 390.545 193.261L398.878 193.392L397.063 194.281C396.064 194.77 394.283 195.49 393.104 195.882C391.926 196.274 391.102 196.598 391.274 196.602C392.431 196.63 398.18 194.225 399.405 193.201L399.933 192.761L392.114 192.82L384.295 192.879V189.382V185.886L373.67 185.833C361.573 185.773 362.442 185.858 362.818 184.793C363.052 184.129 363.112 169.389 363.173 96.9185L363.246 9.84352L362.752 8.23451C362.472 7.32151 362.169 6.68052 362.052 6.75252C361.938 6.82352 361.888 6.75251 361.94 6.59551C361.992 6.43851 361.957 6.21452 361.862 6.09752C361.768 5.98052 361.283 5.31852 360.785 4.62552C359.292 2.54852 356.994 1.01351 354.587 0.484514C353.232 0.186514 49.5644 -0.186484 47.4054 0.106516ZM42.0384 2.55152C42.0384 2.72352 41.9914 2.81752 41.9334 2.75952C41.8764 2.70252 41.6344 2.81851 41.3954 3.01851C41.0794 3.28351 41.0994 3.22651 41.4674 2.81051C42.0584 2.14151 42.0384 2.15052 42.0384 2.55152ZM26.7574 17.0765C19.9034 23.8625 11.7344 31.9485 8.60441 35.0455C2.85741 40.7325 1.63041 42.1855 0.900414 44.1695C0.374414 45.6005 0.172414 46.4675 0.397414 46.3285C0.497414 46.2665 0.691414 45.7125 0.829414 45.0965C1.24441 43.2415 2.41441 41.5335 5.13541 38.8105C13.6044 30.3335 37.6054 6.70652 37.8054 6.64952C38.0354 6.58252 39.4854 4.73952 39.3064 4.73952C39.2584 4.73952 33.6114 10.2915 26.7574 17.0765ZM36.9294 9.42652C36.9104 9.77052 36.8454 10.2865 36.7864 10.5725L36.6794 11.0935L36.9034 10.5795C37.0264 10.2975 37.0914 9.78152 37.0464 9.43352L36.9664 8.80152L36.9294 9.42652ZM36.7944 96.8225C36.7944 143.745 36.8184 162.94 36.8474 139.479C36.8764 116.018 36.8764 77.6275 36.8474 54.1665C36.8184 30.7055 36.7944 49.9005 36.7944 96.8225ZM5.20741 195.367C5.70841 195.598 6.36441 195.836 6.66541 195.897C6.96641 195.957 6.74341 195.815 6.17041 195.58C4.74541 194.997 4.08741 194.852 5.20741 195.367ZM7.52441 196.171C7.69641 196.274 8.16541 196.417 8.56641 196.488C9.05841 196.575 9.15941 196.559 8.87841 196.438C8.23441 196.163 7.15441 195.95 7.52441 196.171ZM9.73641 196.819C9.97941 196.917 10.6354 197.049 11.1944 197.113C12.1814 197.225 12.1744 197.219 10.9624 196.931C9.55941 196.596 9.07641 196.553 9.73641 196.819ZM389.411 196.842C388.902 196.942 388.387 197.068 388.265 197.126C387.903 197.293 390.092 196.988 390.545 196.807C391.08 196.594 390.602 196.608 389.411 196.842ZM12.8374 197.448C13.1804 197.535 13.8374 197.607 14.2954 197.608H15.1284L14.2954 197.436C13.8374 197.341 13.1804 197.269 12.8374 197.276L12.2124 197.289L12.8374 197.448ZM385.962 197.448L385.128 197.597L385.962 197.602C386.42 197.605 387.076 197.535 387.42 197.448L388.045 197.289L387.42 197.294C387.076 197.297 386.42 197.366 385.962 197.448Z" fill="#D3D3D4"/>
</svg>
