<svg id="svg" version="1.1" xmlns="http://www.w3.org/2000/svg" xmlns:xlink="http://www.w3.org/1999/xlink" width="400" height="400" viewBox="0, 0, 400,400"><g id="svgg"><path id="path0" d="M180.800 23.600 C 180.800 23.829,179.600 24.000,178.000 24.000 C 176.460 24.000,175.200 24.153,175.200 24.340 C 175.200 24.527,172.995 24.804,170.300 24.955 C 167.605 25.107,165.340 25.404,165.267 25.615 C 165.193 25.827,164.428 26.000,163.567 26.000 C 162.705 26.000,162.000 26.180,162.000 26.400 C 162.000 26.620,161.190 26.800,160.200 26.800 C 159.210 26.800,158.400 26.980,158.400 27.200 C 158.400 27.420,157.680 27.600,156.800 27.600 C 155.920 27.600,155.200 27.780,155.200 28.000 C 155.200 28.220,154.660 28.400,154.000 28.400 C 153.340 28.400,152.800 28.580,152.800 28.800 C 152.800 29.020,152.080 29.200,151.200 29.200 C 150.320 29.200,149.600 29.380,149.600 29.600 C 149.600 29.820,149.060 30.000,148.400 30.000 C 147.740 30.000,147.200 30.180,147.200 30.400 C 147.200 30.620,146.660 30.800,146.000 30.800 C 145.340 30.800,144.800 30.980,144.800 31.200 C 144.800 31.420,144.296 31.600,143.680 31.600 C 142.464 31.600,140.408 32.416,140.403 32.900 C 140.401 33.065,139.860 33.200,139.200 33.200 C 138.540 33.200,138.000 33.380,138.000 33.600 C 138.000 33.820,137.460 34.000,136.800 34.000 C 136.140 34.000,135.600 34.180,135.600 34.400 C 135.600 34.620,135.240 34.800,134.800 34.800 C 134.360 34.800,134.000 34.980,134.000 35.200 C 134.000 35.420,133.640 35.600,133.200 35.600 C 132.760 35.600,132.400 35.780,132.400 36.000 C 132.400 36.220,131.860 36.400,131.200 36.400 C 130.540 36.400,130.000 36.580,130.000 36.800 C 130.000 37.020,129.640 37.200,129.200 37.200 C 128.760 37.200,128.400 37.380,128.400 37.600 C 128.400 37.820,128.040 38.000,127.600 38.000 C 127.160 38.000,126.800 38.180,126.800 38.400 C 126.800 38.620,126.350 38.800,125.800 38.800 C 125.250 38.800,124.800 38.980,124.800 39.200 C 124.800 39.420,124.440 39.600,124.000 39.600 C 123.560 39.600,123.200 39.780,123.200 40.000 C 123.200 40.220,122.840 40.400,122.400 40.400 C 121.960 40.400,121.600 40.580,121.600 40.800 C 121.600 41.020,121.285 41.201,120.900 41.202 C 120.515 41.204,119.684 41.474,119.054 41.802 C 118.424 42.131,117.659 42.400,117.354 42.400 C 117.049 42.400,116.800 42.580,116.800 42.800 C 116.800 43.020,116.480 43.200,116.088 43.200 C 115.697 43.200,115.117 43.560,114.800 44.000 C 114.483 44.440,113.903 44.800,113.512 44.800 C 113.120 44.800,112.800 44.980,112.800 45.200 C 112.800 45.420,112.440 45.600,112.000 45.600 C 111.560 45.600,111.200 45.780,111.200 46.000 C 111.200 46.220,110.880 46.400,110.488 46.400 C 110.097 46.400,109.517 46.760,109.200 47.200 C 108.883 47.640,108.433 48.000,108.200 48.000 C 107.967 48.000,107.517 48.360,107.200 48.800 C 106.883 49.240,106.303 49.600,105.912 49.600 C 105.520 49.600,105.200 49.780,105.200 50.000 C 105.200 50.220,104.880 50.400,104.488 50.400 C 104.097 50.400,103.517 50.760,103.200 51.200 C 102.883 51.640,102.343 52.000,102.000 52.000 C 101.657 52.000,101.117 52.360,100.800 52.800 C 100.483 53.240,99.975 53.600,99.672 53.600 C 99.369 53.600,98.617 54.140,98.000 54.800 C 97.383 55.460,96.663 56.000,96.400 56.000 C 96.137 56.000,95.417 56.540,94.800 57.200 C 94.183 57.860,93.404 58.400,93.069 58.400 C 92.733 58.400,92.104 58.850,91.671 59.400 C 91.239 59.950,90.674 60.400,90.416 60.400 C 90.159 60.400,89.071 61.300,88.000 62.400 C 86.929 63.500,85.852 64.400,85.607 64.400 C 85.362 64.400,83.919 65.660,82.400 67.200 C 80.881 68.740,79.438 70.000,79.193 70.000 C 78.948 70.000,77.857 70.945,76.767 72.100 C 74.290 74.727,74.521 74.496,72.500 76.365 C 71.565 77.230,70.800 78.139,70.800 78.386 C 70.800 78.632,69.360 80.259,67.600 82.000 C 65.840 83.741,64.400 85.368,64.400 85.614 C 64.400 85.861,63.680 86.754,62.800 87.600 C 61.920 88.446,61.198 89.376,61.196 89.669 C 61.194 89.961,60.654 90.625,59.996 91.145 C 59.338 91.665,58.800 92.332,58.800 92.627 C 58.800 92.922,58.350 93.614,57.800 94.164 C 57.250 94.714,56.800 95.370,56.800 95.621 C 56.800 95.873,56.260 96.583,55.600 97.200 C 54.940 97.817,54.400 98.569,54.400 98.872 C 54.400 99.175,54.040 99.683,53.600 100.000 C 53.160 100.317,52.800 100.857,52.800 101.200 C 52.800 101.543,52.440 102.083,52.000 102.400 C 51.560 102.717,51.200 103.257,51.200 103.600 C 51.200 103.943,50.840 104.483,50.400 104.800 C 49.960 105.117,49.600 105.697,49.600 106.088 C 49.600 106.480,49.420 106.800,49.200 106.800 C 48.980 106.800,48.800 107.148,48.800 107.573 C 48.800 107.998,48.440 108.460,48.000 108.600 C 47.560 108.740,47.200 109.202,47.200 109.627 C 47.200 110.052,47.020 110.400,46.800 110.400 C 46.580 110.400,46.400 110.720,46.400 111.112 C 46.400 111.503,46.040 112.083,45.600 112.400 C 45.159 112.718,44.800 113.435,44.800 114.000 C 44.800 114.565,44.441 115.282,44.000 115.600 C 43.560 115.917,43.200 116.497,43.200 116.888 C 43.200 117.280,43.020 117.600,42.800 117.600 C 42.580 117.600,42.400 117.849,42.400 118.154 C 42.400 118.459,42.131 119.224,41.802 119.854 C 41.474 120.484,41.204 121.315,41.202 121.700 C 41.201 122.085,41.020 122.400,40.800 122.400 C 40.580 122.400,40.400 122.940,40.400 123.600 C 40.400 124.260,40.220 124.800,40.000 124.800 C 39.780 124.800,39.600 125.030,39.600 125.312 C 39.600 125.593,39.240 126.083,38.800 126.400 C 38.330 126.739,38.000 127.435,38.000 128.088 C 38.000 128.700,37.820 129.200,37.600 129.200 C 37.380 129.200,37.200 129.560,37.200 130.000 C 37.200 130.440,37.020 130.800,36.800 130.800 C 36.580 130.800,36.400 131.340,36.400 132.000 C 36.400 132.660,36.220 133.200,36.000 133.200 C 35.780 133.200,35.600 133.560,35.600 134.000 C 35.600 134.440,35.420 134.800,35.200 134.800 C 34.980 134.800,34.800 135.340,34.800 136.000 C 34.800 136.660,34.620 137.200,34.400 137.200 C 34.180 137.200,34.000 137.560,34.000 138.000 C 34.000 138.440,33.820 138.800,33.600 138.800 C 33.380 138.800,33.200 139.419,33.200 140.176 C 33.200 140.933,33.020 141.664,32.800 141.800 C 32.580 141.936,32.400 142.487,32.400 143.024 C 32.400 143.561,32.220 144.000,32.000 144.000 C 31.780 144.000,31.600 144.360,31.600 144.800 C 31.600 145.240,31.420 145.600,31.200 145.600 C 30.980 145.600,30.800 146.320,30.800 147.200 C 30.800 148.080,30.620 148.800,30.400 148.800 C 30.180 148.800,30.000 149.520,30.000 150.400 C 30.000 151.280,29.820 152.000,29.600 152.000 C 29.380 152.000,29.200 152.540,29.200 153.200 C 29.200 153.860,29.020 154.400,28.800 154.400 C 28.580 154.400,28.400 155.120,28.400 156.000 C 28.400 156.880,28.220 157.600,28.000 157.600 C 27.780 157.600,27.600 158.410,27.600 159.400 C 27.600 160.390,27.420 161.200,27.200 161.200 C 26.980 161.200,26.800 161.920,26.800 162.800 C 26.800 163.680,26.620 164.400,26.400 164.400 C 26.180 164.400,26.000 165.300,26.000 166.400 C 26.000 167.500,25.845 168.400,25.656 168.400 C 25.467 168.400,25.183 170.965,25.026 174.100 C 24.868 177.235,24.573 179.860,24.370 179.933 C 23.885 180.108,23.873 218.400,24.358 218.400 C 24.556 218.400,24.847 221.010,25.007 224.200 C 25.166 227.390,25.455 230.000,25.648 230.000 C 25.842 230.000,26.000 230.900,26.000 232.000 C 26.000 233.100,26.180 234.000,26.400 234.000 C 26.620 234.000,26.800 234.720,26.800 235.600 C 26.800 236.480,26.980 237.200,27.200 237.200 C 27.420 237.200,27.600 237.999,27.600 238.976 C 27.600 239.953,27.780 240.864,28.000 241.000 C 28.220 241.136,28.400 241.867,28.400 242.624 C 28.400 243.381,28.580 244.000,28.800 244.000 C 29.020 244.000,29.200 244.540,29.200 245.200 C 29.200 245.860,29.380 246.400,29.600 246.400 C 29.820 246.400,30.000 247.120,30.000 248.000 C 30.000 248.880,30.180 249.600,30.400 249.600 C 30.620 249.600,30.800 250.320,30.800 251.200 C 30.800 252.080,30.980 252.800,31.200 252.800 C 31.420 252.800,31.600 253.160,31.600 253.600 C 31.600 254.040,31.780 254.400,32.000 254.400 C 32.220 254.400,32.400 254.940,32.400 255.600 C 32.400 256.260,32.580 256.800,32.800 256.800 C 33.020 256.800,33.200 257.430,33.200 258.200 C 33.200 258.970,33.380 259.600,33.600 259.600 C 33.820 259.600,34.000 259.960,34.000 260.400 C 34.000 260.840,34.180 261.200,34.400 261.200 C 34.620 261.200,34.800 261.740,34.800 262.400 C 34.800 263.060,34.980 263.600,35.200 263.600 C 35.420 263.600,35.600 263.960,35.600 264.400 C 35.600 264.840,35.780 265.200,36.000 265.200 C 36.220 265.200,36.400 265.740,36.400 266.400 C 36.400 267.060,36.580 267.600,36.800 267.600 C 37.020 267.600,37.200 267.960,37.200 268.400 C 37.200 268.840,37.380 269.200,37.600 269.200 C 37.820 269.200,38.000 269.700,38.000 270.312 C 38.000 270.965,38.330 271.661,38.800 272.000 C 39.240 272.317,39.600 272.897,39.600 273.288 C 39.600 273.680,39.780 274.000,40.000 274.000 C 40.220 274.000,40.400 274.450,40.400 275.000 C 40.400 275.550,40.580 276.000,40.800 276.000 C 41.020 276.000,41.201 276.315,41.202 276.700 C 41.204 277.085,41.474 277.916,41.802 278.546 C 42.131 279.176,42.400 279.941,42.400 280.246 C 42.400 280.551,42.580 280.800,42.800 280.800 C 43.020 280.800,43.200 281.120,43.200 281.512 C 43.200 281.903,43.560 282.483,44.000 282.800 C 44.441 283.118,44.800 283.835,44.800 284.400 C 44.800 284.965,45.159 285.682,45.600 286.000 C 46.040 286.317,46.400 286.897,46.400 287.288 C 46.400 287.680,46.580 288.000,46.800 288.000 C 47.020 288.000,47.200 288.320,47.200 288.712 C 47.200 289.103,47.560 289.683,48.000 290.000 C 48.440 290.317,48.800 290.807,48.800 291.088 C 48.800 291.370,48.980 291.600,49.200 291.600 C 49.420 291.600,49.600 291.920,49.600 292.312 C 49.600 292.703,49.960 293.283,50.400 293.600 C 50.840 293.917,51.200 294.457,51.200 294.800 C 51.200 295.143,51.560 295.683,52.000 296.000 C 52.440 296.317,52.800 296.857,52.800 297.200 C 52.800 297.543,53.160 298.083,53.600 298.400 C 54.040 298.717,54.400 299.225,54.400 299.528 C 54.400 299.831,54.940 300.583,55.600 301.200 C 56.260 301.817,56.800 302.527,56.800 302.779 C 56.800 303.030,57.250 303.686,57.800 304.236 C 58.350 304.786,58.800 305.465,58.800 305.743 C 58.800 306.022,59.340 306.768,60.000 307.400 C 60.660 308.032,61.200 308.710,61.200 308.906 C 61.200 309.102,61.920 309.954,62.800 310.800 C 63.680 311.646,64.400 312.539,64.400 312.786 C 64.400 313.032,65.840 314.659,67.600 316.400 C 69.360 318.141,70.800 319.757,70.800 319.991 C 70.800 320.549,78.649 328.400,79.206 328.400 C 79.442 328.400,81.059 329.840,82.800 331.600 C 84.541 333.360,86.168 334.800,86.414 334.800 C 86.661 334.800,87.554 335.520,88.400 336.400 C 89.246 337.280,90.143 338.000,90.394 338.000 C 90.646 338.000,91.306 338.540,91.861 339.200 C 92.417 339.860,93.082 340.400,93.340 340.400 C 93.597 340.400,94.293 340.850,94.887 341.400 C 95.480 341.950,96.171 342.400,96.422 342.400 C 96.673 342.400,97.383 342.940,98.000 343.600 C 98.617 344.260,99.369 344.800,99.672 344.800 C 99.975 344.800,100.483 345.160,100.800 345.600 C 101.117 346.040,101.657 346.400,102.000 346.400 C 102.343 346.400,102.883 346.760,103.200 347.200 C 103.517 347.640,104.097 348.000,104.488 348.000 C 104.880 348.000,105.200 348.180,105.200 348.400 C 105.200 348.620,105.520 348.800,105.912 348.800 C 106.303 348.800,106.883 349.160,107.200 349.600 C 107.517 350.040,107.967 350.400,108.200 350.400 C 108.433 350.400,108.883 350.760,109.200 351.200 C 109.517 351.640,110.097 352.000,110.488 352.000 C 110.880 352.000,111.200 352.180,111.200 352.400 C 111.200 352.620,111.560 352.800,112.000 352.800 C 112.440 352.800,112.800 352.980,112.800 353.200 C 112.800 353.420,113.120 353.600,113.512 353.600 C 113.903 353.600,114.483 353.960,114.800 354.400 C 115.117 354.840,115.697 355.200,116.088 355.200 C 116.480 355.200,116.800 355.380,116.800 355.600 C 116.800 355.820,117.160 356.000,117.600 356.000 C 118.040 356.000,118.400 356.180,118.400 356.400 C 118.400 356.620,118.760 356.800,119.200 356.800 C 119.640 356.800,120.000 356.980,120.000 357.200 C 120.000 357.420,120.360 357.600,120.800 357.600 C 121.240 357.600,121.600 357.764,121.600 357.965 C 121.600 358.166,122.320 358.451,123.200 358.600 C 124.080 358.749,124.800 359.034,124.800 359.235 C 124.800 359.436,125.250 359.600,125.800 359.600 C 126.350 359.600,126.800 359.780,126.800 360.000 C 126.800 360.220,127.160 360.400,127.600 360.400 C 128.040 360.400,128.400 360.580,128.400 360.800 C 128.400 361.020,128.760 361.200,129.200 361.200 C 129.640 361.200,130.000 361.380,130.000 361.600 C 130.000 361.820,130.540 362.000,131.200 362.000 C 131.860 362.000,132.400 362.180,132.400 362.400 C 132.400 362.620,132.760 362.800,133.200 362.800 C 133.640 362.800,134.000 362.980,134.000 363.200 C 134.000 363.420,134.360 363.600,134.800 363.600 C 135.240 363.600,135.600 363.780,135.600 364.000 C 135.600 364.220,136.140 364.400,136.800 364.400 C 137.460 364.400,138.000 364.580,138.000 364.800 C 138.000 365.020,138.540 365.200,139.200 365.200 C 139.860 365.200,140.401 365.335,140.403 365.500 C 140.408 365.984,142.464 366.800,143.680 366.800 C 144.296 366.800,144.800 366.980,144.800 367.200 C 144.800 367.420,145.340 367.600,146.000 367.600 C 146.660 367.600,147.200 367.780,147.200 368.000 C 147.200 368.220,147.740 368.400,148.400 368.400 C 149.060 368.400,149.600 368.580,149.600 368.800 C 149.600 369.020,150.320 369.200,151.200 369.200 C 152.080 369.200,152.800 369.380,152.800 369.600 C 152.800 369.820,153.340 370.000,154.000 370.000 C 154.660 370.000,155.200 370.180,155.200 370.400 C 155.200 370.620,155.920 370.800,156.800 370.800 C 157.680 370.800,158.400 370.980,158.400 371.200 C 158.400 371.420,159.210 371.600,160.200 371.600 C 161.190 371.600,162.000 371.780,162.000 372.000 C 162.000 372.220,162.720 372.400,163.600 372.400 C 164.480 372.400,165.200 372.580,165.200 372.800 C 165.200 373.020,166.100 373.200,167.200 373.200 C 168.300 373.200,169.200 373.380,169.200 373.600 C 169.200 373.830,170.440 374.000,172.120 374.000 C 173.923 374.000,175.231 374.191,175.540 374.500 C 176.269 375.229,223.731 375.229,224.460 374.500 C 224.769 374.191,226.077 374.000,227.880 374.000 C 229.560 374.000,230.800 373.830,230.800 373.600 C 230.800 373.380,231.700 373.200,232.800 373.200 C 233.900 373.200,234.800 373.020,234.800 372.800 C 234.800 372.580,235.520 372.400,236.400 372.400 C 237.280 372.400,238.000 372.220,238.000 372.000 C 238.000 371.780,238.810 371.600,239.800 371.600 C 240.790 371.600,241.600 371.420,241.600 371.200 C 241.600 370.980,242.320 370.800,243.200 370.800 C 244.080 370.800,244.800 370.620,244.800 370.400 C 244.800 370.180,245.340 370.000,246.000 370.000 C 246.660 370.000,247.200 369.820,247.200 369.600 C 247.200 369.380,247.920 369.200,248.800 369.200 C 249.680 369.200,250.400 369.020,250.400 368.800 C 250.400 368.580,250.940 368.400,251.600 368.400 C 252.260 368.400,252.800 368.220,252.800 368.000 C 252.800 367.780,253.340 367.600,254.000 367.600 C 254.660 367.600,255.200 367.420,255.200 367.200 C 255.200 366.980,255.920 366.800,256.800 366.800 C 257.680 366.800,258.400 366.620,258.400 366.400 C 258.400 366.180,258.670 366.000,259.000 366.000 C 259.330 366.000,259.600 365.820,259.600 365.600 C 259.600 365.380,260.140 365.200,260.800 365.200 C 261.460 365.200,262.000 365.020,262.000 364.800 C 262.000 364.580,262.540 364.400,263.200 364.400 C 263.860 364.400,264.400 364.220,264.400 364.000 C 264.400 363.780,264.760 363.600,265.200 363.600 C 265.640 363.600,266.000 363.420,266.000 363.200 C 266.000 362.980,266.360 362.800,266.800 362.800 C 267.240 362.800,267.600 362.620,267.600 362.400 C 267.600 362.180,268.140 362.000,268.800 362.000 C 269.460 362.000,270.000 361.820,270.000 361.600 C 270.000 361.380,270.360 361.200,270.800 361.200 C 271.240 361.200,271.600 361.020,271.600 360.800 C 271.600 360.580,271.960 360.400,272.400 360.400 C 272.840 360.400,273.200 360.220,273.200 360.000 C 273.200 359.780,273.650 359.600,274.200 359.600 C 274.750 359.600,275.200 359.436,275.200 359.235 C 275.200 359.034,275.920 358.749,276.800 358.600 C 277.680 358.451,278.400 358.166,278.400 357.965 C 278.400 357.764,278.760 357.600,279.200 357.600 C 279.640 357.600,280.000 357.420,280.000 357.200 C 280.000 356.980,280.360 356.800,280.800 356.800 C 281.240 356.800,281.600 356.620,281.600 356.400 C 281.600 356.180,281.960 356.000,282.400 356.000 C 282.840 356.000,283.200 355.820,283.200 355.600 C 283.200 355.380,283.520 355.200,283.912 355.200 C 284.303 355.200,284.883 354.840,285.200 354.400 C 285.517 353.960,286.097 353.600,286.488 353.600 C 286.880 353.600,287.200 353.420,287.200 353.200 C 287.200 352.980,287.560 352.800,288.000 352.800 C 288.440 352.800,288.800 352.620,288.800 352.400 C 288.800 352.180,289.120 352.000,289.512 352.000 C 289.903 352.000,290.483 351.640,290.800 351.200 C 291.117 350.760,291.567 350.400,291.800 350.400 C 292.033 350.400,292.483 350.040,292.800 349.600 C 293.117 349.160,293.697 348.800,294.088 348.800 C 294.480 348.800,294.800 348.620,294.800 348.400 C 294.800 348.180,295.120 348.000,295.512 348.000 C 295.903 348.000,296.483 347.640,296.800 347.200 C 297.117 346.760,297.657 346.400,298.000 346.400 C 298.343 346.400,298.883 346.040,299.200 345.600 C 299.517 345.160,300.025 344.800,300.328 344.800 C 300.631 344.800,301.383 344.260,302.000 343.600 C 302.617 342.940,303.332 342.400,303.589 342.400 C 303.847 342.400,304.308 342.175,304.615 341.900 C 305.611 341.006,306.181 340.610,307.293 340.036 C 307.895 339.726,308.492 339.141,308.620 338.736 C 308.749 338.331,309.126 338.000,309.458 338.000 C 309.791 338.000,310.754 337.280,311.600 336.400 C 312.446 335.520,313.339 334.800,313.586 334.800 C 313.832 334.800,315.459 333.360,317.200 331.600 C 318.941 329.840,320.558 328.400,320.794 328.400 C 321.351 328.400,329.200 320.549,329.200 319.991 C 329.200 319.757,330.640 318.141,332.400 316.400 C 334.160 314.659,335.600 313.032,335.600 312.786 C 335.600 312.539,336.320 311.646,337.200 310.800 C 338.080 309.954,338.800 309.149,338.800 309.010 C 338.800 308.870,339.339 308.181,339.998 307.478 C 340.657 306.775,341.197 305.983,341.198 305.718 C 341.199 305.453,341.650 304.786,342.200 304.236 C 342.750 303.686,343.200 303.030,343.200 302.779 C 343.200 302.527,343.740 301.817,344.400 301.200 C 345.060 300.583,345.600 299.831,345.600 299.528 C 345.600 299.225,345.960 298.717,346.400 298.400 C 346.840 298.083,347.200 297.543,347.200 297.200 C 347.200 296.857,347.560 296.317,348.000 296.000 C 348.440 295.683,348.800 295.143,348.800 294.800 C 348.800 294.457,349.160 293.917,349.600 293.600 C 350.040 293.283,350.400 292.703,350.400 292.312 C 350.400 291.920,350.580 291.600,350.800 291.600 C 351.020 291.600,351.200 291.370,351.200 291.088 C 351.200 290.807,351.560 290.317,352.000 290.000 C 352.440 289.683,352.800 289.103,352.800 288.712 C 352.800 288.320,352.980 288.000,353.200 288.000 C 353.420 288.000,353.600 287.680,353.600 287.288 C 353.600 286.897,353.960 286.317,354.400 286.000 C 354.841 285.682,355.200 284.965,355.200 284.400 C 355.200 283.835,355.559 283.118,356.000 282.800 C 356.440 282.483,356.800 281.903,356.800 281.512 C 356.800 281.120,356.980 280.800,357.200 280.800 C 357.420 280.800,357.600 280.440,357.600 280.000 C 357.600 279.560,357.764 279.200,357.965 279.200 C 358.166 279.200,358.451 278.480,358.600 277.600 C 358.749 276.720,359.034 276.000,359.235 276.000 C 359.436 276.000,359.600 275.730,359.600 275.400 C 359.600 275.070,359.780 274.800,360.000 274.800 C 360.220 274.800,360.400 274.300,360.400 273.688 C 360.400 273.035,360.730 272.339,361.200 272.000 C 361.670 271.661,362.000 270.965,362.000 270.312 C 362.000 269.700,362.180 269.200,362.400 269.200 C 362.620 269.200,362.800 268.840,362.800 268.400 C 362.800 267.960,362.980 267.600,363.200 267.600 C 363.420 267.600,363.600 267.060,363.600 266.400 C 363.600 265.740,363.780 265.200,364.000 265.200 C 364.220 265.200,364.400 264.840,364.400 264.400 C 364.400 263.960,364.580 263.600,364.800 263.600 C 365.020 263.600,365.200 263.060,365.200 262.400 C 365.200 261.740,365.380 261.200,365.600 261.200 C 365.820 261.200,366.000 260.840,366.000 260.400 C 366.000 259.960,366.180 259.600,366.400 259.600 C 366.620 259.600,366.800 258.970,366.800 258.200 C 366.800 257.430,366.980 256.800,367.200 256.800 C 367.420 256.800,367.600 256.260,367.600 255.600 C 367.600 254.940,367.780 254.400,368.000 254.400 C 368.220 254.400,368.400 254.040,368.400 253.600 C 368.400 253.160,368.580 252.800,368.800 252.800 C 369.020 252.800,369.200 252.080,369.200 251.200 C 369.200 250.320,369.380 249.600,369.600 249.600 C 369.820 249.600,370.000 248.880,370.000 248.000 C 370.000 247.120,370.180 246.400,370.400 246.400 C 370.620 246.400,370.800 245.860,370.800 245.200 C 370.800 244.540,370.980 244.000,371.200 244.000 C 371.420 244.000,371.600 243.370,371.600 242.600 C 371.600 241.830,371.780 241.200,372.000 241.200 C 372.220 241.200,372.400 240.300,372.400 239.200 C 372.400 238.100,372.580 237.200,372.800 237.200 C 373.020 237.200,373.200 236.480,373.200 235.600 C 373.200 234.720,373.380 234.000,373.600 234.000 C 373.820 234.000,374.000 233.100,374.000 232.000 C 374.000 230.900,374.158 230.000,374.352 230.000 C 374.545 230.000,374.834 227.390,374.993 224.200 C 375.153 221.010,375.444 218.400,375.642 218.400 C 376.127 218.400,376.115 180.108,375.630 179.933 C 375.427 179.860,375.132 177.235,374.974 174.100 C 374.817 170.965,374.533 168.400,374.344 168.400 C 374.155 168.400,374.000 167.500,374.000 166.400 C 374.000 165.300,373.820 164.400,373.600 164.400 C 373.380 164.400,373.200 163.680,373.200 162.800 C 373.200 161.920,373.020 161.200,372.800 161.200 C 372.580 161.200,372.400 160.390,372.400 159.400 C 372.400 158.410,372.220 157.600,372.000 157.600 C 371.780 157.600,371.600 156.880,371.600 156.000 C 371.600 155.120,371.420 154.400,371.200 154.400 C 370.980 154.400,370.800 153.860,370.800 153.200 C 370.800 152.540,370.620 152.000,370.400 152.000 C 370.180 152.000,370.000 151.280,370.000 150.400 C 370.000 149.520,369.820 148.800,369.600 148.800 C 369.380 148.800,369.200 148.080,369.200 147.200 C 369.200 146.320,369.020 145.600,368.800 145.600 C 368.580 145.600,368.400 145.240,368.400 144.800 C 368.400 144.360,368.220 144.000,368.000 144.000 C 367.780 144.000,367.600 143.561,367.600 143.024 C 367.600 142.487,367.420 141.936,367.200 141.800 C 366.980 141.664,366.800 140.933,366.800 140.176 C 366.800 139.419,366.620 138.800,366.400 138.800 C 366.180 138.800,366.000 138.440,366.000 138.000 C 366.000 137.560,365.820 137.200,365.600 137.200 C 365.380 137.200,365.200 136.660,365.200 136.000 C 365.200 135.340,365.020 134.800,364.800 134.800 C 364.580 134.800,364.400 134.440,364.400 134.000 C 364.400 133.560,364.220 133.200,364.000 133.200 C 363.780 133.200,363.600 132.660,363.600 132.000 C 363.600 131.340,363.420 130.800,363.200 130.800 C 362.980 130.800,362.800 130.440,362.800 130.000 C 362.800 129.560,362.620 129.200,362.400 129.200 C 362.180 129.200,362.000 128.700,362.000 128.088 C 362.000 127.435,361.670 126.739,361.200 126.400 C 360.760 126.083,360.400 125.593,360.400 125.312 C 360.400 125.030,360.220 124.800,360.000 124.800 C 359.780 124.800,359.600 124.260,359.600 123.600 C 359.600 122.940,359.436 122.400,359.235 122.400 C 359.034 122.400,358.749 121.680,358.600 120.800 C 358.451 119.920,358.166 119.200,357.965 119.200 C 357.764 119.200,357.600 118.840,357.600 118.400 C 357.600 117.960,357.420 117.600,357.200 117.600 C 356.980 117.600,356.800 117.280,356.800 116.888 C 356.800 116.497,356.440 115.917,356.000 115.600 C 355.559 115.282,355.200 114.565,355.200 114.000 C 355.200 113.435,354.841 112.718,354.400 112.400 C 353.960 112.083,353.600 111.503,353.600 111.112 C 353.600 110.720,353.420 110.400,353.200 110.400 C 352.980 110.400,352.800 110.052,352.800 109.627 C 352.800 109.202,352.440 108.740,352.000 108.600 C 351.560 108.460,351.200 107.998,351.200 107.573 C 351.200 107.148,351.020 106.800,350.800 106.800 C 350.580 106.800,350.400 106.480,350.400 106.088 C 350.400 105.697,350.040 105.117,349.600 104.800 C 349.160 104.483,348.800 103.943,348.800 103.600 C 348.800 103.257,348.440 102.717,348.000 102.400 C 347.560 102.083,347.200 101.543,347.200 101.200 C 347.200 100.857,346.840 100.317,346.400 100.000 C 345.960 99.683,345.600 99.175,345.600 98.872 C 345.600 98.569,345.060 97.817,344.400 97.200 C 343.740 96.583,343.200 95.873,343.200 95.621 C 343.200 95.370,342.750 94.714,342.200 94.164 C 341.650 93.614,341.200 92.922,341.200 92.627 C 341.200 92.332,340.662 91.665,340.004 91.145 C 339.346 90.625,338.806 89.961,338.804 89.669 C 338.802 89.376,338.080 88.446,337.200 87.600 C 336.320 86.754,335.600 85.861,335.600 85.614 C 335.600 85.368,334.160 83.741,332.400 82.000 C 330.640 80.259,329.200 78.632,329.200 78.386 C 329.200 78.139,328.435 77.230,327.500 76.365 C 325.479 74.496,325.710 74.727,323.233 72.100 C 322.143 70.945,321.052 70.000,320.807 70.000 C 320.562 70.000,319.119 68.740,317.600 67.200 C 316.081 65.660,314.638 64.400,314.393 64.400 C 314.148 64.400,313.071 63.500,312.000 62.400 C 310.929 61.300,309.841 60.400,309.584 60.400 C 309.326 60.400,308.761 59.950,308.329 59.400 C 307.896 58.850,307.267 58.400,306.931 58.400 C 306.596 58.400,305.817 57.860,305.200 57.200 C 304.583 56.540,303.863 56.000,303.600 56.000 C 303.337 56.000,302.617 55.460,302.000 54.800 C 301.383 54.140,300.631 53.600,300.328 53.600 C 300.025 53.600,299.517 53.240,299.200 52.800 C 298.883 52.360,298.343 52.000,298.000 52.000 C 297.657 52.000,297.117 51.640,296.800 51.200 C 296.483 50.760,295.903 50.400,295.512 50.400 C 295.120 50.400,294.800 50.220,294.800 50.000 C 294.800 49.780,294.480 49.600,294.088 49.600 C 293.697 49.600,293.117 49.240,292.800 48.800 C 292.483 48.360,292.033 48.000,291.800 48.000 C 291.567 48.000,291.117 47.640,290.800 47.200 C 290.483 46.760,289.903 46.400,289.512 46.400 C 289.120 46.400,288.800 46.220,288.800 46.000 C 288.800 45.780,288.440 45.600,288.000 45.600 C 287.560 45.600,287.200 45.420,287.200 45.200 C 287.200 44.980,286.880 44.800,286.488 44.800 C 286.097 44.800,285.517 44.440,285.200 44.000 C 284.883 43.560,284.303 43.200,283.912 43.200 C 283.520 43.200,283.200 43.020,283.200 42.800 C 283.200 42.580,282.951 42.400,282.646 42.400 C 282.341 42.400,281.576 42.131,280.946 41.802 C 280.316 41.474,279.485 41.204,279.100 41.202 C 278.715 41.201,278.400 41.020,278.400 40.800 C 278.400 40.580,278.040 40.400,277.600 40.400 C 277.160 40.400,276.800 40.220,276.800 40.000 C 276.800 39.780,276.440 39.600,276.000 39.600 C 275.560 39.600,275.200 39.420,275.200 39.200 C 275.200 38.980,274.750 38.800,274.200 38.800 C 273.650 38.800,273.200 38.620,273.200 38.400 C 273.200 38.180,272.840 38.000,272.400 38.000 C 271.960 38.000,271.600 37.820,271.600 37.600 C 271.600 37.380,271.240 37.200,270.800 37.200 C 270.360 37.200,270.000 37.020,270.000 36.800 C 270.000 36.580,269.460 36.400,268.800 36.400 C 268.140 36.400,267.600 36.220,267.600 36.000 C 267.600 35.780,267.240 35.600,266.800 35.600 C 266.360 35.600,266.000 35.420,266.000 35.200 C 266.000 34.980,265.640 34.800,265.200 34.800 C 264.760 34.800,264.400 34.620,264.400 34.400 C 264.400 34.180,263.860 34.000,263.200 34.000 C 262.540 34.000,262.000 33.820,262.000 33.600 C 262.000 33.380,261.460 33.200,260.800 33.200 C 260.140 33.200,259.600 33.020,259.600 32.800 C 259.600 32.580,259.330 32.400,259.000 32.400 C 258.670 32.400,258.400 32.220,258.400 32.000 C 258.400 31.780,257.680 31.600,256.800 31.600 C 255.920 31.600,255.200 31.420,255.200 31.200 C 255.200 30.980,254.660 30.800,254.000 30.800 C 253.340 30.800,252.800 30.620,252.800 30.400 C 252.800 30.180,252.260 30.000,251.600 30.000 C 250.940 30.000,250.400 29.820,250.400 29.600 C 250.400 29.380,249.680 29.200,248.800 29.200 C 247.920 29.200,247.200 29.020,247.200 28.800 C 247.200 28.580,246.660 28.400,246.000 28.400 C 245.340 28.400,244.800 28.220,244.800 28.000 C 244.800 27.780,244.080 27.600,243.200 27.600 C 242.320 27.600,241.600 27.420,241.600 27.200 C 241.600 26.980,240.790 26.800,239.800 26.800 C 238.810 26.800,238.000 26.620,238.000 26.400 C 238.000 26.180,237.295 26.000,236.433 26.000 C 235.572 26.000,234.807 25.827,234.733 25.615 C 234.660 25.404,232.395 25.107,229.700 24.955 C 227.005 24.804,224.800 24.527,224.800 24.340 C 224.800 24.153,223.540 24.000,222.000 24.000 C 220.400 24.000,219.200 23.829,219.200 23.600 C 219.200 23.339,212.533 23.200,200.000 23.200 C 187.467 23.200,180.800 23.339,180.800 23.600 M218.800 114.562 C 228.943 115.859,245.639 119.994,247.380 121.641 C 247.589 121.838,248.012 122.000,248.319 122.000 C 248.627 122.000,250.436 122.754,252.339 123.676 C 263.494 129.078,270.620 135.688,273.059 142.895 L 274.000 145.677 274.000 198.596 C 274.000 258.341,274.234 253.854,270.850 259.000 C 264.283 268.985,246.938 278.019,228.200 281.213 C 227.100 281.401,224.670 281.826,222.800 282.157 C 212.233 284.029,190.036 284.131,179.000 282.358 C 158.004 278.984,143.114 272.929,134.084 264.092 C 130.713 260.794,128.661 257.788,127.597 254.590 C 126.800 252.195,126.790 251.415,126.894 197.981 L 127.000 143.800 128.455 140.800 C 137.717 121.697,179.565 109.544,218.800 114.562 M193.200 124.257 C 192.650 124.333,189.950 124.572,187.200 124.789 C 180.230 125.340,174.334 126.302,168.400 127.856 C 165.593 128.592,157.189 131.242,156.400 131.641 C 156.070 131.808,154.270 132.661,152.400 133.538 C 128.922 144.540,133.787 158.181,164.600 167.745 C 199.225 178.492,253.228 169.636,262.343 151.716 C 267.180 142.208,248.382 129.809,223.400 126.029 C 221.640 125.763,219.840 125.464,219.400 125.364 C 215.672 124.521,197.021 123.733,193.200 124.257 M137.444 167.089 C 137.310 167.223,137.200 172.724,137.200 179.313 L 137.200 191.292 138.900 192.875 C 143.831 197.466,155.802 203.280,165.200 205.650 C 167.084 206.125,175.664 207.908,178.400 208.392 C 189.020 210.274,211.336 210.271,222.000 208.386 C 230.444 206.894,237.373 205.222,241.800 203.610 C 243.120 203.130,245.010 202.450,246.000 202.099 C 250.959 200.342,259.723 195.089,262.117 192.439 L 263.600 190.798 263.600 179.432 C 263.600 166.063,263.570 165.891,261.570 167.626 C 255.797 172.633,238.743 178.908,224.600 181.228 C 211.128 183.439,190.510 183.587,178.200 181.562 C 161.567 178.826,149.134 174.448,139.144 167.812 C 138.344 167.280,137.579 166.955,137.444 167.089 M253.400 185.433 L 253.400 188.198 252.000 188.872 C 248.933 190.347,245.509 191.665,244.191 191.879 L 242.800 192.105 242.800 189.681 C 242.800 187.155,243.386 186.029,244.729 185.971 C 245.098 185.956,247.020 185.162,249.000 184.207 C 253.440 182.066,253.400 182.055,253.400 185.433 M137.467 199.467 C 137.320 199.613,137.200 205.033,137.200 211.510 L 137.200 223.287 139.100 225.071 C 141.822 227.627,146.038 230.283,150.799 232.441 C 151.789 232.890,153.139 233.504,153.799 233.806 C 167.798 240.213,200.349 244.016,217.000 241.189 C 218.320 240.965,220.480 240.615,221.800 240.411 C 229.011 239.298,229.646 239.166,236.300 237.384 C 246.771 234.581,258.095 228.891,262.162 224.390 L 263.600 222.798 263.600 211.222 C 263.600 198.088,263.738 198.533,260.382 200.812 C 255.029 204.447,244.070 209.028,235.400 211.255 C 234.520 211.481,233.170 211.833,232.400 212.038 C 215.089 216.636,186.383 216.452,166.800 211.617 C 162.329 210.514,160.109 209.905,159.400 209.590 C 158.960 209.394,157.160 208.763,155.400 208.188 C 151.608 206.949,143.049 202.743,140.097 200.669 C 137.816 199.065,137.852 199.081,137.467 199.467 M253.518 217.311 C 253.659 220.475,253.758 220.382,247.679 222.789 C 242.882 224.689,242.798 224.670,242.806 221.676 C 242.814 218.802,242.808 218.809,246.400 217.395 C 248.050 216.746,250.120 215.809,251.000 215.312 C 253.171 214.088,253.382 214.256,253.518 217.311 M137.467 231.467 C 137.040 231.893,137.159 249.263,137.600 250.799 C 140.350 260.390,161.017 269.781,185.200 272.429 C 194.401 273.437,214.783 272.973,221.800 271.595 C 230.328 269.922,232.347 269.502,233.400 269.182 C 249.997 264.141,258.944 258.962,262.461 252.357 C 263.471 250.461,264.191 232.431,263.293 231.533 C 263.063 231.303,261.875 231.862,260.190 232.992 C 257.318 234.918,251.053 238.043,247.000 239.573 C 245.680 240.071,244.240 240.627,243.800 240.809 C 241.560 241.737,236.717 243.042,229.000 244.795 C 225.805 245.520,218.293 246.523,211.000 247.196 C 202.913 247.943,189.926 247.592,182.000 246.413 C 180.570 246.200,177.960 245.829,176.200 245.589 C 174.440 245.348,172.460 245.003,171.800 244.822 C 171.140 244.640,169.520 244.270,168.200 243.998 C 160.026 242.317,147.553 237.557,142.358 234.135 C 141.243 233.401,140.194 232.800,140.027 232.800 C 139.860 232.800,139.398 232.440,139.000 232.000 C 138.232 231.152,137.898 231.035,137.467 231.467 M253.517 249.433 C 253.670 252.562,253.446 252.786,248.025 254.939 C 242.722 257.044,242.798 257.057,242.806 254.076 C 242.814 251.152,242.838 251.124,246.477 249.671 C 248.170 248.995,250.240 248.081,251.077 247.640 C 253.158 246.543,253.383 246.708,253.517 249.433 M194.400 310.379 C 194.730 310.789,195.990 312.696,197.200 314.618 C 198.410 316.539,200.615 320.004,202.100 322.318 C 205.295 327.297,205.276 327.200,203.053 327.200 C 201.458 327.200,201.214 327.061,200.247 325.600 L 199.189 324.000 194.640 324.000 C 190.247 324.000,190.070 323.966,189.446 323.014 C 188.372 321.375,188.607 321.200,191.900 321.195 C 197.497 321.185,197.472 321.229,194.560 316.557 C 192.370 313.043,192.302 313.057,189.620 317.522 C 183.960 326.941,183.924 326.987,181.865 327.122 C 179.709 327.263,179.707 327.122,181.815 323.800 C 182.513 322.700,184.621 319.370,186.499 316.400 C 191.344 308.739,192.419 307.920,194.400 310.379 M152.709 310.891 C 158.598 314.792,157.678 323.842,151.113 326.580 C 148.771 327.556,136.384 327.454,134.200 326.439 C 127.064 323.125,127.195 313.000,134.412 310.033 C 136.830 309.039,150.909 309.699,152.709 310.891 M177.196 311.044 C 181.045 314.521,179.295 321.165,174.520 321.206 C 172.382 321.224,172.569 321.937,175.402 324.565 L 178.200 327.162 176.000 327.180 L 173.800 327.198 169.117 323.133 C 163.589 318.334,163.585 318.400,169.370 318.400 C 174.583 318.400,176.000 317.792,176.000 315.553 C 176.000 312.845,174.763 312.365,168.107 312.489 L 162.200 312.600 161.977 319.800 C 161.718 328.144,161.939 327.200,160.243 327.200 C 158.416 327.200,158.400 327.123,158.400 318.400 C 158.400 308.515,157.310 309.600,167.242 309.600 L 175.598 309.600 177.196 311.044 M223.657 310.900 L 222.835 312.200 216.845 312.400 C 209.476 312.646,207.449 313.759,206.950 317.835 C 206.390 322.406,209.023 323.998,217.159 324.006 C 224.380 324.013,224.902 324.171,223.629 325.959 L 222.746 327.200 216.527 327.200 C 207.766 327.200,204.302 325.112,203.725 319.483 C 202.982 312.228,206.602 309.601,217.339 309.600 L 224.479 309.600 223.657 310.900 M229.757 310.233 C 229.891 310.581,230.000 313.810,230.000 317.408 L 230.000 323.951 237.368 324.075 C 245.406 324.211,245.733 324.295,244.530 325.907 L 243.714 327.000 235.757 327.098 C 231.183 327.155,227.545 327.034,227.200 326.814 C 226.596 326.428,226.028 311.547,226.563 310.152 C 226.865 309.364,229.449 309.430,229.757 310.233 M265.600 309.838 C 265.600 309.969,265.291 310.599,264.914 311.238 L 264.228 312.400 258.840 312.400 C 252.777 312.400,250.500 313.073,249.405 315.190 C 248.577 316.792,248.615 316.800,256.867 316.800 C 265.113 316.800,265.532 316.943,263.530 319.074 C 262.689 319.970,262.445 320.000,255.997 320.000 C 248.637 320.000,248.534 320.026,249.493 321.650 C 250.675 323.651,252.060 323.999,258.860 324.006 C 265.966 324.013,266.279 324.108,265.138 325.910 L 264.321 327.200 258.156 327.200 C 252.715 327.200,251.780 327.101,250.193 326.355 C 243.491 323.204,243.495 313.463,250.200 310.358 C 251.772 309.631,265.600 309.164,265.600 309.838 M270.018 310.434 C 270.264 310.893,270.405 311.304,270.332 311.347 C 270.260 311.391,269.885 311.667,269.500 311.962 C 268.864 312.449,268.800 312.366,268.800 311.049 C 268.800 309.436,269.338 309.164,270.018 310.434 M135.320 313.218 C 131.149 315.318,131.196 321.669,135.396 323.424 C 137.464 324.288,148.386 324.234,150.247 323.351 C 154.312 321.422,154.518 316.318,150.647 313.425 C 148.922 312.135,137.770 311.984,135.320 313.218 " stroke="none" fill="#eb1b23" fill-rule="evenodd"></path><path id="path1" d="M185.109 114.204 C 156.448 117.304,134.955 127.394,128.455 140.800 L 127.000 143.800 126.894 197.981 C 126.790 251.415,126.800 252.195,127.597 254.590 C 130.517 263.365,141.749 271.972,157.000 277.121 C 163.375 279.273,170.790 281.038,179.000 282.358 C 190.036 284.131,212.233 284.029,222.800 282.157 C 224.670 281.826,227.100 281.401,228.200 281.213 C 246.938 278.019,264.283 268.985,270.850 259.000 C 274.234 253.854,274.000 258.341,274.000 198.596 L 274.000 145.677 273.059 142.895 C 270.620 135.688,263.494 129.078,252.339 123.676 C 250.436 122.754,248.627 122.000,248.319 122.000 C 248.012 122.000,247.589 121.838,247.380 121.641 C 246.349 120.667,234.626 117.323,227.000 115.829 C 216.901 113.849,195.911 113.035,185.109 114.204 M211.600 124.594 C 215.450 124.918,218.960 125.265,219.400 125.364 C 219.840 125.464,221.640 125.763,223.400 126.029 C 248.382 129.809,267.180 142.208,262.343 151.716 C 253.228 169.636,199.225 178.492,164.600 167.745 C 133.787 158.181,128.922 144.540,152.400 133.538 C 154.270 132.661,156.070 131.808,156.400 131.641 C 157.189 131.242,165.593 128.592,168.400 127.856 C 174.334 126.302,180.230 125.340,187.200 124.789 C 189.950 124.572,192.650 124.333,193.200 124.257 C 195.856 123.893,205.323 124.066,211.600 124.594 M143.617 170.518 C 151.228 174.907,161.822 178.523,173.600 180.751 C 193.180 184.455,219.810 183.541,236.755 178.583 C 247.500 175.439,257.811 170.886,261.570 167.626 C 263.570 165.891,263.600 166.063,263.600 179.432 L 263.600 190.798 262.117 192.439 C 259.723 195.089,250.959 200.342,246.000 202.099 C 245.010 202.450,243.120 203.130,241.800 203.610 C 237.373 205.222,230.444 206.894,222.000 208.386 C 211.336 210.271,189.020 210.274,178.400 208.392 C 166.061 206.206,158.343 203.942,150.557 200.224 C 145.574 197.844,141.434 195.234,138.900 192.875 L 137.200 191.292 137.200 179.313 C 137.200 166.018,137.124 166.469,139.144 167.812 C 139.945 168.344,141.957 169.561,143.617 170.518 M249.000 184.207 C 247.020 185.162,245.098 185.956,244.729 185.971 C 243.386 186.029,242.800 187.155,242.800 189.681 L 242.800 192.105 244.191 191.879 C 245.509 191.665,248.933 190.347,252.000 188.872 L 253.400 188.198 253.400 185.433 C 253.400 182.055,253.440 182.066,249.000 184.207 M140.097 200.669 C 143.049 202.743,151.608 206.949,155.400 208.188 C 157.160 208.763,158.960 209.394,159.400 209.590 C 160.109 209.905,162.329 210.514,166.800 211.617 C 185.250 216.172,206.346 216.664,227.400 213.031 C 229.380 212.689,231.630 212.242,232.400 212.038 C 233.170 211.833,234.520 211.481,235.400 211.255 C 244.070 209.028,255.029 204.447,260.382 200.812 C 263.738 198.533,263.600 198.088,263.600 211.222 L 263.600 222.798 262.162 224.390 C 258.095 228.891,246.771 234.581,236.300 237.384 C 229.646 239.166,229.011 239.298,221.800 240.411 C 220.480 240.615,218.320 240.965,217.000 241.189 C 200.349 244.016,167.798 240.213,153.799 233.806 C 153.139 233.504,151.789 232.890,150.799 232.441 C 146.038 230.283,141.822 227.627,139.100 225.071 L 137.200 223.287 137.200 211.510 C 137.200 201.108,137.304 199.200,137.871 199.200 C 137.946 199.200,138.948 199.861,140.097 200.669 M251.000 215.312 C 250.120 215.809,248.050 216.746,246.400 217.395 C 242.808 218.809,242.814 218.802,242.806 221.676 C 242.798 224.670,242.882 224.689,247.679 222.789 C 253.758 220.382,253.659 220.475,253.518 217.311 C 253.382 214.256,253.171 214.088,251.000 215.312 M139.000 232.000 C 139.398 232.440,139.860 232.800,140.027 232.800 C 140.194 232.800,141.243 233.401,142.358 234.135 C 147.553 237.557,160.026 242.317,168.200 243.998 C 169.520 244.270,171.140 244.640,171.800 244.822 C 172.460 245.003,174.440 245.348,176.200 245.589 C 177.960 245.829,180.570 246.200,182.000 246.413 C 189.926 247.592,202.913 247.943,211.000 247.196 C 218.293 246.523,225.805 245.520,229.000 244.795 C 236.717 243.042,241.560 241.737,243.800 240.809 C 244.240 240.627,245.680 240.071,247.000 239.573 C 251.053 238.043,257.318 234.918,260.190 232.992 C 261.875 231.862,263.063 231.303,263.293 231.533 C 264.191 232.431,263.471 250.461,262.461 252.357 C 258.944 258.962,249.997 264.141,233.400 269.182 C 232.347 269.502,230.328 269.922,221.800 271.595 C 199.631 275.946,164.696 271.302,148.600 261.865 C 138.506 255.946,137.200 253.507,137.200 240.569 C 137.200 230.730,137.323 230.146,139.000 232.000 M251.077 247.640 C 250.240 248.081,248.170 248.995,246.477 249.671 C 242.838 251.124,242.814 251.152,242.806 254.076 C 242.798 257.057,242.722 257.044,248.025 254.939 C 253.446 252.786,253.670 252.562,253.517 249.433 C 253.383 246.708,253.158 246.543,251.077 247.640 M190.781 310.063 C 190.304 310.578,188.378 313.430,186.499 316.400 C 184.621 319.370,182.513 322.700,181.815 323.800 C 179.707 327.122,179.709 327.263,181.865 327.122 C 183.924 326.987,183.960 326.941,189.620 317.522 C 192.302 313.057,192.370 313.043,194.560 316.557 C 197.472 321.229,197.497 321.185,191.900 321.195 C 188.607 321.200,188.372 321.375,189.446 323.014 C 190.070 323.966,190.247 324.000,194.640 324.000 L 199.189 324.000 200.247 325.600 C 201.214 327.061,201.458 327.200,203.053 327.200 C 205.276 327.200,205.295 327.297,202.100 322.318 C 200.615 320.004,198.410 316.539,197.200 314.618 C 193.647 308.976,192.523 308.178,190.781 310.063 M134.412 310.033 C 127.195 313.000,127.064 323.125,134.200 326.439 C 136.384 327.454,148.771 327.556,151.113 326.580 C 157.678 323.842,158.598 314.792,152.709 310.891 C 150.909 309.699,136.830 309.039,134.412 310.033 M158.643 310.233 C 158.509 310.581,158.400 314.256,158.400 318.400 C 158.400 327.123,158.416 327.200,160.243 327.200 C 161.939 327.200,161.718 328.144,161.977 319.800 L 162.200 312.600 168.107 312.489 C 174.763 312.365,176.000 312.845,176.000 315.553 C 176.000 317.792,174.583 318.400,169.370 318.400 C 163.585 318.400,163.589 318.334,169.117 323.133 L 173.800 327.198 176.000 327.180 L 178.200 327.162 175.402 324.565 C 172.569 321.937,172.382 321.224,174.520 321.206 C 179.295 321.165,181.045 314.521,177.196 311.044 L 175.598 309.600 167.242 309.600 C 159.991 309.600,158.853 309.684,158.643 310.233 M208.491 310.447 C 202.096 313.612,201.994 322.675,208.315 326.115 C 210.240 327.163,210.521 327.200,216.527 327.200 L 222.746 327.200 223.629 325.959 C 224.902 324.171,224.380 324.013,217.159 324.006 C 209.023 323.998,206.390 322.406,206.950 317.835 C 207.449 313.759,209.476 312.646,216.845 312.400 L 222.835 312.200 223.657 310.900 L 224.479 309.600 217.339 309.600 C 210.877 309.601,210.038 309.681,208.491 310.447 M226.563 310.152 C 226.028 311.547,226.596 326.428,227.200 326.814 C 227.545 327.034,231.183 327.155,235.757 327.098 L 243.714 327.000 244.530 325.907 C 245.733 324.295,245.406 324.211,237.368 324.075 L 230.000 323.951 230.000 317.408 C 230.000 313.810,229.891 310.581,229.757 310.233 C 229.449 309.430,226.865 309.364,226.563 310.152 M250.200 310.358 C 243.495 313.463,243.491 323.204,250.193 326.355 C 251.780 327.101,252.715 327.200,258.156 327.200 L 264.321 327.200 265.138 325.910 C 266.279 324.108,265.966 324.013,258.860 324.006 C 252.060 323.999,250.675 323.651,249.493 321.650 C 248.534 320.026,248.637 320.000,255.997 320.000 C 262.445 320.000,262.689 319.970,263.530 319.074 C 265.532 316.943,265.113 316.800,256.867 316.800 C 248.615 316.800,248.577 316.792,249.405 315.190 C 250.500 313.073,252.777 312.400,258.840 312.400 L 264.228 312.400 264.914 311.238 C 265.291 310.599,265.600 309.969,265.600 309.838 C 265.600 309.164,251.772 309.631,250.200 310.358 M268.800 311.049 C 268.800 312.366,268.864 312.449,269.500 311.962 C 269.885 311.667,270.260 311.391,270.332 311.347 C 270.601 311.188,269.559 309.600,269.186 309.600 C 268.974 309.600,268.800 310.252,268.800 311.049 M150.647 313.425 C 154.518 316.318,154.312 321.422,150.247 323.351 C 148.386 324.234,137.464 324.288,135.396 323.424 C 131.196 321.669,131.149 315.318,135.320 313.218 C 137.770 311.984,148.922 312.135,150.647 313.425 " stroke="none" fill="#f2f3f5" fill-rule="evenodd"></path></g></svg>