<svg width="240" height="214" viewBox="0 0 240 214" fill="none" xmlns="http://www.w3.org/2000/svg">
<path d="M119.217 129.017C131.564 129.017 141.574 118.995 141.574 106.633C141.574 94.27 131.564 84.2481 119.217 84.2481C106.87 84.2481 96.861 94.27 96.861 106.633C96.861 118.995 106.87 129.017 119.217 129.017Z" fill="#61DAFB"/>
<path d="M240 107.024C240 91.1055 220.09 76.0192 189.564 66.6638C196.608 35.5116 193.477 10.7269 179.682 2.79194C176.502 0.930646 172.784 0.0489807 168.724 0.0489807V10.9718C170.974 10.9718 172.784 11.4127 174.301 12.2454C180.954 16.0659 183.84 30.6134 181.59 49.3243C181.052 53.9286 180.171 58.7778 179.095 63.7249C169.507 61.3738 159.038 59.5615 148.031 58.3859C141.427 49.3243 134.578 41.0954 127.68 33.8952C143.628 19.0538 158.598 10.9229 168.773 10.9229V0C155.32 0 137.709 9.60037 119.902 26.2541C102.095 9.69833 84.4843 0.195927 71.0314 0.195927V11.1188C81.1578 11.1188 96.1761 19.2007 112.124 33.9442C105.275 41.1444 98.4264 49.3243 91.9201 58.3859C80.8643 59.5615 70.3954 61.3738 60.8072 63.7739C59.682 58.8757 58.8504 54.1245 58.2633 49.5692C55.9641 30.8583 58.8015 16.3108 65.4056 12.4413C66.8732 11.5596 68.7811 11.1678 71.0314 11.1678V0.244907C66.9221 0.244907 63.2042 1.12657 59.9755 2.98787C46.2291 10.9229 43.1472 35.6585 50.2405 66.7127C19.8125 76.1172 0 91.1545 0 107.024C0 122.943 19.9103 138.03 50.4362 147.385C43.3918 178.537 46.5226 203.322 60.318 211.257C63.4978 213.118 67.2157 214 71.3249 214C84.7778 214 102.389 204.4 120.196 187.746C138.002 204.302 155.614 213.804 169.066 213.804C173.176 213.804 176.894 212.922 180.122 211.061C193.869 203.126 196.951 178.39 189.857 147.336C220.188 137.981 240 122.894 240 107.024ZM176.307 74.3539C174.497 80.6725 172.246 87.187 169.702 93.7015C167.697 89.783 165.593 85.8645 163.294 81.946C161.044 78.0275 158.647 74.2069 156.25 70.4843C163.196 71.5129 169.898 72.7864 176.307 74.3539ZM153.901 126.519C150.086 133.132 146.172 139.401 142.112 145.23C134.823 145.867 127.436 146.21 120 146.21C112.613 146.21 105.226 145.867 97.9861 145.279C93.9258 139.45 89.9633 133.23 86.1476 126.666C82.4297 120.249 79.0542 113.735 75.9723 107.171C79.0053 100.608 82.4297 94.0444 86.0987 87.6278C89.9144 81.0153 93.828 74.7457 97.8883 68.9169C105.177 68.2802 112.564 67.9373 120 67.9373C127.387 67.9373 134.774 68.2802 142.014 68.8679C146.074 74.6967 150.037 80.9174 153.852 87.4809C157.57 93.8975 160.946 100.412 164.028 106.976C160.946 113.539 157.57 120.103 153.901 126.519ZM169.702 120.152C172.344 126.715 174.594 133.279 176.453 139.646C170.045 141.214 163.294 142.536 156.298 143.565C158.695 139.793 161.093 135.924 163.343 131.956C165.593 128.038 167.697 124.07 169.702 120.152ZM120.098 172.415C115.548 167.713 110.999 162.471 106.498 156.741C110.901 156.937 115.402 157.084 119.951 157.084C124.55 157.084 129.099 156.986 133.551 156.741C129.148 162.471 124.598 167.713 120.098 172.415ZM83.7016 143.565C76.755 142.536 70.053 141.263 63.6445 139.695C65.4545 133.377 67.7049 126.862 70.2487 120.347C72.2544 124.266 74.3579 128.184 76.6572 132.103C78.9564 136.022 81.3045 139.842 83.7016 143.565ZM119.853 41.6342C124.403 46.3365 128.952 51.5775 133.453 57.3083C129.05 57.1124 124.55 56.9654 120 56.9654C115.402 56.9654 110.852 57.0634 106.4 57.3083C110.803 51.5775 115.353 46.3365 119.853 41.6342ZM83.6527 70.4843C81.2556 74.2559 78.8585 78.1254 76.6082 82.0929C74.3579 86.0114 72.2544 89.93 70.2487 93.8485C67.607 87.285 65.3567 80.7214 63.4978 74.3539C69.9062 72.8354 76.6572 71.5129 83.6527 70.4843ZM39.3804 131.809C22.0628 124.413 10.8602 114.715 10.8602 107.024C10.8602 99.3344 22.0628 89.5871 39.3804 82.2399C43.5875 80.4276 48.1859 78.8112 52.9311 77.2927C55.7195 86.8931 59.3885 96.8853 63.938 107.122C59.4374 117.311 55.8174 127.254 53.0779 136.805C48.2348 135.287 43.6364 133.621 39.3804 131.809ZM65.6991 201.804C59.0461 197.983 56.1598 183.436 58.4101 164.725C58.9482 160.12 59.8288 155.271 60.905 150.324C70.4933 152.675 80.9621 154.488 91.969 155.663C98.5732 164.725 105.422 172.954 112.32 180.154C96.3718 194.995 81.4024 203.126 71.2271 203.126C69.0257 203.077 67.1667 202.636 65.6991 201.804ZM181.737 164.48C184.036 183.191 181.199 197.738 174.594 201.608C173.127 202.489 171.219 202.881 168.969 202.881C158.842 202.881 143.824 194.799 127.876 180.056C134.725 172.856 141.574 164.676 148.08 155.614C159.136 154.439 169.605 152.626 179.193 150.226C180.318 155.173 181.199 159.924 181.737 164.48ZM200.571 131.809C196.364 133.621 191.765 135.238 187.02 136.756C184.232 127.156 180.563 117.164 176.013 106.927C180.514 96.7384 184.134 86.7951 186.873 77.2438C191.716 78.7622 196.315 80.4276 200.62 82.2399C217.937 89.6361 229.14 99.3344 229.14 107.024C229.091 114.715 217.888 124.462 200.571 131.809Z" fill="#61DAFB"/>
</svg>
