<svg id="svg" version="1.1" xmlns="http://www.w3.org/2000/svg" xmlns:xlink="http://www.w3.org/1999/xlink" width="400" height="346.6666666666667" viewBox="0, 0, 400,346.6666666666667"><g id="svgg"><path id="path0" d="M80.901 1.417 C 81.250 2.013,108.136 48.593,140.648 104.929 C 173.161 161.264,199.888 207.314,200.043 207.262 C 200.197 207.210,226.774 161.340,259.102 105.329 C 291.429 49.318,318.296 2.781,318.805 1.912 L 319.730 0.333 282.941 0.333 L 246.152 0.333 223.162 40.167 C 210.517 62.075,200.090 80.000,199.990 80.000 C 199.890 80.000,189.464 62.076,176.821 40.168 L 153.833 0.336 117.050 0.335 L 80.267 0.333 80.901 1.417 " stroke="none" fill="#34445c" fill-rule="evenodd"></path><path id="path1" d="M-0.000 0.204 C -0.000 0.426,1.939 3.887,5.583 10.167 C 10.376 18.427,11.785 20.861,12.338 21.833 C 12.650 22.383,13.775 24.333,14.838 26.167 C 15.900 28.000,17.027 29.950,17.342 30.500 C 17.657 31.050,20.726 36.375,24.162 42.333 C 27.598 48.292,31.618 55.267,33.096 57.833 C 34.574 60.400,36.789 64.225,38.019 66.333 C 39.249 68.442,40.552 70.692,40.914 71.333 C 41.276 71.975,42.442 74.000,43.504 75.833 C 44.566 77.667,45.694 79.617,46.009 80.167 C 46.324 80.717,49.393 86.042,52.829 92.000 C 56.265 97.958,60.285 104.933,61.763 107.500 C 63.240 110.067,65.456 113.892,66.686 116.000 C 67.916 118.108,69.219 120.358,69.581 121.000 C 69.943 121.642,71.109 123.667,72.171 125.500 C 73.233 127.333,74.359 129.283,74.672 129.833 C 74.985 130.383,76.291 132.633,77.573 134.833 C 78.855 137.033,82.272 142.958,85.166 148.000 C 91.167 158.455,95.236 165.509,100.884 175.250 C 101.921 177.037,103.025 178.950,103.339 179.500 C 103.652 180.050,104.693 181.850,105.652 183.500 C 106.612 185.150,110.028 191.075,113.245 196.667 C 120.230 208.808,124.454 216.126,129.551 224.917 C 130.588 226.704,131.692 228.617,132.005 229.167 C 132.319 229.717,133.360 231.517,134.319 233.167 C 135.278 234.817,138.695 240.742,141.912 246.333 C 148.897 258.474,153.121 265.793,158.218 274.583 C 159.254 276.371,160.358 278.283,160.671 278.833 C 160.984 279.383,162.109 281.333,163.171 283.167 C 164.233 285.000,165.360 286.950,165.675 287.500 C 165.991 288.050,169.060 293.375,172.496 299.333 C 175.931 305.292,179.952 312.267,181.429 314.833 C 182.907 317.400,185.122 321.225,186.353 323.333 C 187.583 325.442,188.885 327.692,189.248 328.333 C 189.610 328.975,190.775 331.000,191.837 332.833 C 192.899 334.667,194.083 336.712,194.467 337.377 C 194.852 338.043,196.217 340.406,197.500 342.627 C 198.783 344.848,199.915 346.666,200.016 346.666 C 200.116 346.667,201.340 344.679,202.734 342.250 C 205.419 337.574,207.692 333.635,213.935 322.833 C 216.055 319.167,219.117 313.863,220.740 311.048 C 222.363 308.233,225.132 303.433,226.893 300.382 C 231.329 292.696,234.565 287.087,237.500 282.000 C 238.875 279.617,241.149 275.679,242.553 273.250 C 243.957 270.821,246.186 266.958,247.506 264.667 C 248.826 262.375,250.773 259.000,251.833 257.167 C 253.916 253.564,257.204 247.869,261.167 241.000 C 262.542 238.617,264.792 234.717,266.167 232.333 C 267.542 229.950,269.772 226.088,271.123 223.750 C 272.474 221.412,274.700 217.550,276.070 215.167 C 277.440 212.783,279.431 209.333,280.494 207.500 C 282.370 204.264,284.663 200.295,289.833 191.333 C 291.208 188.950,293.458 185.050,294.833 182.667 C 296.208 180.283,298.439 176.421,299.789 174.083 C 301.140 171.746,303.367 167.883,304.737 165.500 C 306.107 163.117,308.098 159.667,309.161 157.833 C 311.056 154.565,313.659 150.059,318.548 141.583 C 319.897 139.246,322.147 135.346,323.548 132.917 C 324.950 130.487,327.178 126.625,328.500 124.333 C 329.822 122.042,332.074 118.142,333.506 115.667 C 334.937 113.192,336.930 109.742,337.934 108.000 C 338.938 106.258,340.864 102.921,342.213 100.583 C 343.563 98.246,345.792 94.383,347.167 92.000 C 348.542 89.617,350.792 85.717,352.167 83.333 C 353.542 80.950,355.792 77.050,357.167 74.667 C 358.542 72.283,360.816 68.346,362.221 65.917 C 363.625 63.487,365.596 60.075,366.601 58.333 C 367.605 56.592,369.531 53.254,370.880 50.917 C 373.232 46.842,375.447 43.004,380.785 33.750 C 382.134 31.412,384.363 27.550,385.739 25.167 C 387.115 22.783,389.970 17.833,392.084 14.167 C 394.199 10.500,396.844 5.926,397.964 4.002 C 399.084 2.078,400.000 0.390,400.000 0.252 C 400.000 0.113,382.037 0.001,360.083 0.002 L 320.167 0.003 260.167 103.994 C 227.167 161.189,200.092 207.986,200.000 207.988 C 199.908 207.990,172.833 161.195,139.833 104.000 L 79.833 0.010 39.917 0.005 C 17.962 0.002,-0.000 0.092,-0.000 0.204 " stroke="none" fill="#3cbb84" fill-rule="evenodd"></path><path id="path2" d="M98.417 0.250 C 108.638 0.299,125.362 0.299,135.583 0.250 C 145.804 0.201,137.442 0.161,117.000 0.161 C 96.558 0.161,88.196 0.201,98.417 0.250 M264.417 0.250 C 274.637 0.299,291.362 0.299,301.583 0.250 C 311.804 0.201,303.442 0.161,283.000 0.161 C 262.558 0.161,254.196 0.201,264.417 0.250 " stroke="none" fill="#346867" fill-rule="evenodd"></path><path id="path3" d="" stroke="none" fill="#398774" fill-rule="evenodd"></path><path id="path4" d="" stroke="none" fill="#3ca17c" fill-rule="evenodd"></path></g></svg>