<svg width="664" height="216" viewBox="0 0 664 216" fill="none" xmlns="http://www.w3.org/2000/svg">
<path d="M0 174.011L1.3054 172.183L63.0422 55.0396L63.1725 53.7994L35.9584 2.67981C33.6772 -1.60224 27.2578 -0.520042 26.5101 4.27359L0 174.011Z" fill="#FFC24A"/>
<path d="M0.770508 172.618L1.7574 170.693L62.8412 54.7773L35.7014 3.44986C33.4448 -0.787918 27.7159 0.292433 26.9701 5.03626L0.770508 172.618Z" fill="#FFA712"/>
<path d="M0.770508 172.618L1.7574 170.693L62.8412 54.7773L35.7014 3.44986C33.4448 -0.787918 27.7159 0.292433 26.9701 5.03626L0.770508 172.618Z" fill="black"/>
<path d="M83.0124 92.4678L103.276 71.7155L83.0068 33.0208C81.0823 29.358 75.71 29.3475 73.8063 33.0208L62.9764 53.6809V55.4395L83.0124 92.4678Z" fill="#F4BD62"/>
<path d="M82.651 91.6035L102.351 71.4279L82.651 33.9157C80.7805 30.3493 76.2359 29.9816 74.3851 33.5467L63.4986 54.5143L63.1727 55.5866L82.651 91.6035Z" fill="#FFA50E"/>
<path d="M82.651 91.6035L102.351 71.4279L82.651 33.9157C80.7805 30.3493 76.2359 29.9816 74.3851 33.5467L63.4986 54.5143L63.1727 55.5866L82.651 91.6035Z" fill="black"/>
<path d="M63.0336 53.561L0 174.012L0.591518 173.417L2.74115 172.544L81.7402 93.839L82.74 91.1151L63.0336 53.561Z" fill="#F6820C"/>
<path d="M85.5426 213.704L157.038 173.83L136.627 48.0855C135.988 44.1515 131.162 42.5958 128.347 45.4169L0 174.012L71.0855 213.702C73.2951 214.935 75.7834 215.583 78.314 215.584C80.8445 215.584 83.3331 214.937 85.5432 213.705" fill="#FDE068"/>
<path d="M156.398 173.497L136.136 48.7115C135.503 44.807 131.488 43.1917 128.694 45.9913L0.799255 173.768L71.1038 213.059C75.5617 215.548 80.9912 215.549 85.4515 213.063L156.398 173.497Z" fill="#FCCA3F"/>
<path d="M85.5426 212.53C81.054 215.036 75.5772 215.035 71.0849 212.526L0.571842 173.408L0 174.012L71.0855 213.702C75.5778 216.211 81.0491 216.211 85.5432 213.705L157.039 173.831L156.864 172.754L85.5426 212.53Z" fill="#EEAB37"/>
<path d="M211.172 155.547H199.004V60.8498H254.219V72.4858H211.172V103.57H250.061V114.954H211.172V155.547ZM275.61 74.4695C273.933 76.1464 271.908 76.9917 269.529 76.9917C268.397 77.0112 267.272 76.7974 266.226 76.3635C265.18 75.9295 264.235 75.2848 263.449 74.4695C262.637 73.681 261.994 72.735 261.56 71.6894C261.127 70.6439 260.911 69.5208 260.926 68.389C260.907 67.2567 261.121 66.1324 261.555 65.0863C261.989 64.0402 262.633 63.0946 263.449 62.3086C264.237 61.4965 265.183 60.8539 266.229 60.4202C267.274 59.9866 268.397 59.7709 269.529 59.7864C270.661 59.7668 271.786 59.9807 272.832 60.4146C273.878 60.8485 274.824 61.4932 275.61 62.3086C276.422 63.0971 277.064 64.0431 277.498 65.0886C277.932 66.1342 278.147 67.2572 278.132 68.389C278.151 69.5214 277.937 70.6457 277.504 71.6918C277.07 72.7379 276.425 73.6834 275.61 74.4695V74.4695ZM275.61 155.547H263.442V90.7409H275.61V155.547ZM301.874 155.547H289.7V90.7409H301.336V101.32H301.861C303.088 97.7961 305.63 94.8854 309.468 92.595C313.306 90.3046 316.966 89.1526 320.647 89.1526C324.328 89.1526 327.307 89.6843 329.782 90.7409L325.146 102.125C323.558 101.443 321.397 101.198 318.67 101.198C314.26 101.198 310.354 102.936 306.966 106.419C303.578 109.903 301.874 114.463 301.874 120.107V155.554V155.547ZM361.779 157.592C351.99 157.592 344.035 154.334 337.907 147.803C331.779 141.273 328.705 133.038 328.705 123.072C328.705 113.638 331.677 105.526 337.566 98.7368C343.456 91.9474 351.2 88.5527 360.382 88.5527C369.925 88.5527 377.682 91.6884 383.463 97.9461C389.243 104.204 392.12 112.581 392.12 123.079L391.984 125.329H340.859C341.213 131.852 343.395 137.012 347.403 140.802C349.262 142.63 351.464 144.072 353.882 145.048C356.3 146.023 358.886 146.512 361.493 146.488C370.218 146.488 376.128 142.786 379.216 135.376L390.123 139.875C388.078 144.899 384.519 149.112 379.673 152.507C374.826 155.901 368.868 157.599 361.813 157.599L361.779 157.592ZM379.23 115.329C378.957 111.627 377.267 108.103 374.138 104.749C371.009 101.395 366.353 99.7253 360.184 99.7253C355.685 99.7253 351.786 101.136 348.48 103.952C345.174 106.767 342.904 110.564 341.663 115.335H379.155L379.23 115.329ZM436.238 157.592C431.295 157.592 426.865 156.535 422.945 154.415C419.025 152.295 416.087 149.657 414.083 146.481H413.627V155.479H401.991V60.8498H414.158V90.7409L413.627 99.7389H414.158C416.101 96.5623 419.032 93.9174 423.02 91.8043C427.008 89.6911 431.377 88.6277 436.313 88.6277C444.697 88.6277 451.991 91.9338 458.003 98.546C464.015 105.158 467.137 113.359 467.137 123.086C467.137 132.813 464.097 141.082 458.003 147.626C451.909 154.17 444.69 157.544 436.313 157.544L436.238 157.592ZM434.192 146.481C439.837 146.481 444.69 144.34 448.739 140.073C452.788 135.806 454.82 130.134 454.82 123.079C454.82 116.024 452.788 110.359 448.739 106.085C444.69 101.811 439.83 99.6775 434.192 99.6775C431.444 99.6237 428.717 100.162 426.195 101.256C423.673 102.35 421.416 103.974 419.578 106.017C415.569 110.312 413.558 115.935 413.558 123.079C413.558 130.223 415.563 135.908 419.578 140.141C423.593 144.374 428.46 146.494 434.192 146.494V146.481ZM499.039 157.592C492.223 157.592 486.408 155.547 481.78 151.641C477.151 147.735 474.827 142.425 474.827 135.963C474.827 128.907 477.553 123.379 483.027 119.364C488.501 115.349 495.243 113.345 503.273 113.345C510.416 113.345 516.279 114.667 520.86 117.312V115.458C520.86 110.686 519.224 106.883 515.965 104.02C512.707 101.157 508.692 99.7253 503.927 99.7253C500.396 99.7253 497.199 100.564 494.336 102.247C491.612 103.758 489.523 106.2 488.453 109.125L477.342 104.367C478.842 100.482 481.793 96.8963 486.204 93.5971C490.614 90.2978 496.429 88.6345 503.654 88.6345C511.943 88.6345 518.821 91.0613 524.288 95.9079C529.755 100.755 532.489 107.592 532.489 116.406V155.554H520.921V146.556H520.389C515.536 153.959 508.44 157.667 499.094 157.667L499.039 157.592ZM501.084 146.481C506.108 146.481 510.676 144.606 514.772 140.857C518.869 137.108 520.921 132.677 520.921 127.565C517.485 124.742 512.332 123.338 505.447 123.338C499.537 123.338 495.086 124.62 492.086 127.176C489.087 129.732 487.587 132.732 487.587 136.174C487.587 139.351 488.951 141.859 491.691 143.713C494.431 145.567 497.553 146.494 501.084 146.494V146.481ZM567.888 157.592C560.662 157.592 554.684 155.82 549.96 152.302C545.358 148.924 541.767 144.351 539.578 139.078L550.485 134.579C553.92 142.759 559.79 146.747 568.072 146.747C571.862 146.747 574.97 145.908 577.397 144.224C579.824 142.541 581.037 140.339 581.037 137.612C581.037 133.386 578.086 130.523 572.175 129.023L559.087 125.847C554.943 124.79 551.017 122.779 547.315 119.828C543.614 116.876 541.78 113.031 541.78 107.933C541.78 102.207 544.316 97.5507 549.387 93.9788C554.459 90.4069 560.478 88.6209 567.452 88.6209C573.178 88.6209 578.358 89.9842 582.789 92.52C587.22 95.0558 590.505 98.8459 592.448 103.699L581.869 108.062C579.483 102.336 574.548 99.473 567.056 99.473C563.443 99.473 560.396 100.155 557.922 101.723C555.447 103.29 554.22 105.247 554.22 107.803C554.22 111.504 557.083 114.02 562.809 115.342L575.638 118.382C581.719 119.794 586.218 122.22 589.135 125.656C592.053 129.091 593.498 132.977 593.498 137.292C593.498 143.113 591.112 147.96 586.354 151.839C581.596 155.717 575.461 157.66 567.97 157.66L567.888 157.592ZM632.694 157.592C622.905 157.592 614.943 154.334 608.822 147.803C602.701 141.273 599.619 133.038 599.619 123.072C599.619 113.638 602.591 105.526 608.481 98.7368C614.371 91.9474 622.114 88.5527 631.296 88.5527C640.84 88.5527 648.597 91.6884 654.378 97.9461C660.158 104.204 663.035 112.581 663.035 123.079V125.329H611.91C612.251 131.852 614.446 137.012 618.454 140.802C620.313 142.629 622.513 144.071 624.93 145.046C627.346 146.022 629.931 146.511 632.537 146.488C641.262 146.488 647.172 142.786 650.26 135.376L661.167 139.875C659.122 144.899 655.564 149.112 650.717 152.507C645.87 155.901 639.913 157.599 632.857 157.599L632.694 157.592ZM650.144 115.329C649.872 111.627 648.181 108.103 645.052 104.749C641.924 101.395 637.268 99.7253 631.099 99.7253C626.81 99.6498 622.643 101.157 619.395 103.958C616.088 106.781 613.818 110.571 612.578 115.342H650.07L650.144 115.329Z" fill="#63666A"/>
</svg>
