<svg id="svg" version="1.1" xmlns="http://www.w3.org/2000/svg" xmlns:xlink="http://www.w3.org/1999/xlink" width="400" height="571.4285714285714" viewBox="0, 0, 400,571.4285714285714"><g id="svgg"><path id="path0" d="M202.000 340.043 C 202.000 490.311,202.100 528.048,202.500 527.897 C 202.775 527.793,206.150 526.863,210.000 525.829 C 213.850 524.795,219.880 523.162,223.400 522.199 C 230.109 520.365,250.198 514.932,262.800 511.544 C 266.870 510.449,271.730 509.126,273.600 508.602 C 275.470 508.079,282.760 506.094,289.800 504.191 C 319.676 496.118,329.014 493.534,329.251 493.275 C 329.389 493.124,329.718 490.390,329.982 487.200 C 330.246 484.010,330.808 477.530,331.232 472.800 C 331.656 468.070,332.543 458.080,333.202 450.600 C 333.861 443.120,334.851 431.960,335.401 425.800 C 337.042 407.429,340.473 368.770,343.193 338.000 C 344.058 328.210,345.493 312.010,346.381 302.000 C 349.406 267.906,351.186 247.821,352.782 229.800 C 356.512 187.683,357.658 174.792,358.597 164.400 C 359.143 158.350,359.593 153.085,359.595 152.700 C 359.600 152.036,355.583 152.000,280.800 152.000 L 202.000 152.000 202.000 340.043 M339.600 201.580 C 339.600 202.957,338.772 213.563,338.209 219.400 C 337.707 224.604,337.203 230.343,336.743 236.100 L 336.240 242.400 298.124 242.400 L 260.008 242.400 259.904 280.500 C 259.812 314.026,259.947 320.885,260.660 318.971 C 260.748 318.735,261.357 318.620,262.013 318.717 C 262.670 318.813,263.467 318.676,263.784 318.413 C 264.102 318.149,264.715 318.046,265.147 318.183 C 265.579 318.320,266.034 318.269,266.157 318.069 C 266.281 317.869,267.511 317.580,268.891 317.426 C 270.271 317.272,274.190 316.723,277.600 316.204 C 281.010 315.686,284.789 315.140,285.997 314.992 C 287.205 314.843,291.705 314.190,295.997 313.541 C 300.289 312.892,304.219 312.369,304.730 312.379 C 305.242 312.388,305.964 312.233,306.335 312.035 C 306.927 311.718,312.193 310.879,321.709 309.585 C 325.929 309.011,327.591 308.761,329.536 308.406 L 331.272 308.090 331.058 309.345 C 330.941 310.035,330.440 315.550,329.946 321.600 C 329.451 327.650,328.925 332.690,328.777 332.800 C 328.629 332.910,328.386 334.887,328.238 337.193 C 328.090 339.499,327.896 341.749,327.807 342.193 C 327.718 342.637,327.541 344.530,327.414 346.400 C 327.124 350.652,325.752 366.464,325.210 371.800 C 324.986 374.000,324.706 377.330,324.586 379.200 C 324.466 381.070,324.294 383.140,324.204 383.800 C 324.113 384.460,323.922 386.440,323.779 388.200 C 323.635 389.960,323.246 394.010,322.913 397.200 C 322.580 400.390,322.276 403.810,322.237 404.800 C 322.199 405.790,322.048 406.960,321.901 407.400 C 321.755 407.840,321.440 410.810,321.202 414.000 C 320.963 417.190,320.683 420.520,320.579 421.400 C 320.377 423.101,318.935 439.326,318.529 444.463 C 318.325 447.053,318.157 447.587,317.444 447.924 C 316.681 448.284,309.845 450.234,308.109 450.586 C 305.748 451.065,297.574 453.309,296.400 453.800 C 295.630 454.122,292.885 454.929,290.300 455.593 C 287.715 456.257,283.575 457.337,281.100 457.993 C 278.625 458.649,276.150 459.295,275.600 459.429 C 275.050 459.562,274.330 459.774,274.000 459.899 C 273.670 460.024,273.246 460.092,273.058 460.049 C 272.870 460.007,272.462 460.182,272.152 460.440 C 271.842 460.697,270.646 461.134,269.494 461.410 C 263.197 462.918,249.744 466.523,249.400 466.793 C 249.180 466.966,247.560 467.472,245.800 467.918 C 239.614 469.484,233.058 471.241,232.797 471.402 C 232.651 471.492,231.918 471.673,231.166 471.804 C 228.699 472.235,226.400 472.890,226.400 473.162 C 226.400 473.309,226.085 473.449,225.700 473.475 C 225.315 473.500,223.381 473.989,221.403 474.561 C 219.424 475.132,217.669 475.600,217.503 475.600 C 217.336 475.600,217.200 465.622,217.200 453.427 C 217.200 428.628,216.911 431.077,219.897 430.555 C 220.952 430.371,224.740 429.333,226.000 428.883 C 226.330 428.765,226.690 428.651,226.800 428.628 C 226.910 428.606,227.180 428.473,227.400 428.334 C 227.620 428.194,230.680 427.345,234.200 426.447 C 237.720 425.549,241.950 424.440,243.600 423.982 C 245.250 423.525,246.903 423.084,247.274 423.003 C 247.645 422.922,248.323 422.655,248.782 422.409 C 249.241 422.164,249.777 422.062,249.974 422.184 C 250.171 422.306,250.392 422.260,250.466 422.082 C 250.540 421.904,252.310 421.343,254.400 420.836 C 256.490 420.329,259.660 419.491,261.444 418.975 C 263.228 418.458,265.118 417.955,265.644 417.856 C 267.607 417.487,272.785 416.036,273.495 415.656 C 273.900 415.440,275.749 414.885,277.604 414.423 C 279.459 413.961,281.123 413.437,281.303 413.257 C 281.757 412.803,281.839 412.180,282.799 401.800 C 283.267 396.740,283.821 392.284,284.030 391.898 C 284.238 391.512,284.294 390.478,284.154 389.600 C 284.013 388.723,284.073 387.778,284.286 387.502 C 284.499 387.226,284.896 384.660,285.167 381.800 C 285.438 378.940,285.817 375.250,286.010 373.600 C 286.203 371.950,286.465 369.250,286.594 367.600 C 286.722 365.950,286.906 363.970,287.003 363.200 C 287.099 362.430,287.291 360.810,287.428 359.600 C 287.566 358.390,287.753 357.277,287.846 357.128 C 288.160 356.616,287.234 356.372,286.516 356.778 C 286.122 357.001,281.930 357.736,277.200 358.412 C 272.470 359.087,268.150 359.724,267.600 359.827 C 267.050 359.930,265.340 360.190,263.800 360.404 C 262.260 360.618,259.830 360.968,258.400 361.182 C 256.970 361.396,255.080 361.678,254.200 361.810 C 253.320 361.941,251.430 362.241,250.000 362.475 C 248.570 362.710,247.085 362.890,246.700 362.876 C 246.315 362.861,246.000 363.038,246.000 363.268 C 246.000 363.514,245.590 363.584,245.005 363.437 C 244.457 363.300,243.692 363.363,243.305 363.577 C 242.917 363.792,238.730 364.518,234.000 365.191 C 223.720 366.655,223.209 366.731,220.427 367.219 C 219.231 367.429,218.016 367.600,217.727 367.600 C 217.293 367.600,217.200 352.826,217.200 283.800 L 217.200 200.000 278.400 200.000 L 339.600 200.000 339.600 201.580 M186.198 337.800 C 186.198 413.480,186.244 444.380,186.300 406.468 C 186.356 368.555,186.356 306.635,186.300 268.868 C 186.244 231.100,186.198 262.120,186.198 337.800 M31.952 433.287 C 32.137 434.398,32.193 434.455,32.319 433.654 C 32.401 433.133,32.303 432.543,32.101 432.341 C 31.879 432.119,31.821 432.493,31.952 433.287 M367.701 477.000 C 367.705 477.880,367.787 478.193,367.883 477.695 C 367.979 477.198,367.975 476.478,367.875 476.095 C 367.775 475.713,367.696 476.120,367.701 477.000 " stroke="none" fill="#fbdb04" fill-rule="evenodd"></path><path id="path1" d="M5.522 117.471 C 4.955 117.621,4.876 118.021,5.040 119.925 C 5.148 121.176,5.306 123.100,5.392 124.200 C 5.479 125.300,5.652 126.650,5.778 127.200 C 5.903 127.750,6.093 129.722,6.200 131.582 C 6.307 133.442,6.480 135.512,6.584 136.182 C 6.688 136.852,6.885 138.999,7.023 140.953 C 7.160 142.906,7.332 144.886,7.405 145.353 C 7.478 145.819,7.659 147.986,7.808 150.169 C 7.956 152.352,8.136 154.512,8.206 154.969 C 8.277 155.426,8.459 157.780,8.611 160.200 C 8.763 162.620,8.952 165.116,9.031 165.748 C 9.109 166.379,9.362 169.529,9.591 172.748 C 9.820 175.966,10.129 179.590,10.278 180.800 C 10.426 182.010,10.502 183.402,10.446 183.893 C 10.390 184.385,10.458 184.970,10.596 185.193 C 10.734 185.417,10.925 187.085,11.019 188.900 C 11.114 190.715,11.270 192.747,11.366 193.415 C 11.527 194.535,12.089 201.873,12.166 203.862 C 12.185 204.336,12.306 204.658,12.435 204.578 C 12.564 204.499,12.701 205.371,12.740 206.517 C 12.824 208.983,13.048 211.695,13.574 216.600 C 13.787 218.580,14.073 222.000,14.209 224.200 C 14.345 226.400,14.519 228.650,14.595 229.200 C 14.670 229.750,14.845 231.820,14.984 233.800 C 15.231 237.324,15.325 238.517,15.804 244.200 C 15.934 245.740,16.115 247.900,16.207 249.000 C 16.298 250.100,16.483 252.260,16.617 253.800 C 16.751 255.340,16.938 257.500,17.033 258.600 C 17.127 259.700,17.298 261.680,17.413 263.000 C 17.527 264.320,17.705 266.570,17.808 268.000 C 17.911 269.430,18.086 271.410,18.198 272.400 C 18.309 273.390,18.478 275.010,18.572 276.000 C 18.666 276.990,18.840 278.610,18.958 279.600 C 19.236 281.925,19.499 284.916,19.818 289.398 C 19.958 291.376,20.126 293.086,20.191 293.198 C 20.255 293.309,20.426 295.380,20.571 297.800 C 20.715 300.220,20.908 302.650,20.998 303.200 C 21.089 303.750,21.265 305.820,21.389 307.800 C 21.675 312.342,21.945 315.639,22.406 320.200 C 22.731 323.423,23.116 328.057,23.387 332.000 C 23.850 338.752,24.107 341.909,24.250 342.594 C 24.343 343.037,24.510 344.750,24.621 346.400 C 24.732 348.050,24.911 349.940,25.019 350.600 C 25.127 351.260,25.291 352.970,25.384 354.400 C 25.476 355.830,25.575 357.000,25.604 357.000 C 25.696 357.000,25.915 358.940,26.163 361.953 C 26.297 363.578,26.579 366.908,26.789 369.353 C 27.000 371.799,27.275 375.240,27.399 377.000 C 27.524 378.760,27.706 381.010,27.802 382.000 C 27.899 382.990,28.075 385.150,28.194 386.800 C 28.544 391.677,28.836 395.306,29.000 396.800 C 29.084 397.570,29.265 399.730,29.402 401.600 C 29.665 405.201,29.917 408.244,30.199 411.200 C 30.293 412.190,30.473 414.431,30.598 416.181 C 30.724 417.930,30.924 420.180,31.043 421.181 C 31.162 422.181,31.315 423.540,31.384 424.200 C 31.453 424.860,31.552 425.400,31.603 425.400 C 31.654 425.400,31.745 426.660,31.805 428.200 C 31.865 429.740,31.956 431.000,32.008 431.000 C 32.144 431.000,32.273 432.158,32.564 436.000 C 32.791 438.984,33.111 442.818,33.801 450.800 C 33.906 452.010,34.079 454.170,34.186 455.600 C 35.138 468.301,35.665 474.694,35.801 475.200 C 35.890 475.530,36.082 477.870,36.227 480.400 C 36.373 482.930,36.568 485.360,36.661 485.800 C 36.753 486.240,36.914 488.064,37.018 489.853 C 37.122 491.642,37.302 493.892,37.419 494.853 C 37.698 497.153,38.010 500.934,38.115 503.300 C 38.162 504.345,38.323 505.200,38.473 505.200 C 38.624 505.200,38.740 505.695,38.732 506.300 C 38.723 506.905,38.919 509.641,39.166 512.381 C 39.609 517.299,39.857 517.980,41.207 517.994 C 41.541 517.997,43.971 518.650,46.607 519.444 C 49.243 520.237,51.670 520.932,52.000 520.987 C 52.330 521.042,53.076 521.281,53.657 521.517 C 54.239 521.754,55.409 522.086,56.257 522.256 C 58.308 522.665,58.384 522.684,58.500 522.801 C 58.555 522.857,58.960 522.955,59.400 523.020 C 60.222 523.142,66.242 524.798,69.800 525.882 C 70.900 526.217,71.980 526.521,72.200 526.557 C 72.420 526.593,72.836 526.770,73.125 526.950 C 73.413 527.130,74.223 527.368,74.925 527.478 C 75.626 527.588,77.010 527.955,78.000 528.294 C 79.495 528.804,81.803 529.433,86.400 530.583 C 86.730 530.666,87.720 530.918,88.600 531.144 C 89.480 531.370,90.880 531.727,91.711 531.938 C 92.543 532.148,93.480 532.534,93.794 532.795 C 94.108 533.056,94.561 533.148,94.800 533.000 C 95.039 532.852,95.466 532.923,95.749 533.158 C 96.032 533.392,96.609 533.651,97.031 533.732 C 97.454 533.813,98.070 533.978,98.400 534.099 C 99.565 534.524,106.081 536.133,106.637 536.133 C 106.946 536.133,107.200 536.283,107.200 536.467 C 107.200 536.650,107.618 536.800,108.129 536.800 C 108.640 536.800,109.855 537.047,110.829 537.349 C 111.803 537.651,114.130 538.309,116.000 538.811 C 117.870 539.312,119.623 539.895,119.895 540.106 C 120.167 540.317,120.640 540.393,120.946 540.276 C 121.252 540.159,121.659 540.218,121.851 540.407 C 122.043 540.597,125.710 541.675,130.000 542.803 C 134.290 543.932,138.027 544.927,138.304 545.016 C 138.582 545.105,138.898 545.179,139.008 545.181 C 139.118 545.183,139.751 545.464,140.414 545.807 C 141.077 546.150,141.840 546.395,142.110 546.351 C 142.379 546.307,143.100 546.478,143.710 546.730 C 144.321 546.982,145.221 547.273,145.710 547.376 C 146.200 547.480,147.549 547.827,148.709 548.148 C 149.869 548.469,150.902 548.752,151.005 548.777 C 151.108 548.802,151.418 548.892,151.696 548.979 C 151.973 549.065,152.650 549.220,153.200 549.324 C 155.469 549.752,163.296 551.980,163.731 552.322 C 163.989 552.525,164.470 552.703,164.800 552.718 C 165.130 552.733,167.380 553.299,169.800 553.977 C 172.220 554.654,176.591 555.829,179.514 556.589 C 182.436 557.348,185.046 558.106,185.314 558.274 C 185.581 558.441,185.980 558.608,186.200 558.646 C 186.420 558.683,188.256 559.193,190.280 559.780 C 192.305 560.366,194.455 560.935,195.058 561.045 C 195.661 561.154,197.243 561.610,198.572 562.058 C 201.412 563.015,202.865 562.890,207.600 561.283 C 207.930 561.171,208.560 561.015,209.000 560.936 C 209.916 560.771,213.358 559.772,216.000 558.903 C 217.488 558.414,220.012 557.710,225.600 556.226 C 225.930 556.139,226.920 555.888,227.800 555.669 C 228.680 555.451,230.840 554.879,232.600 554.399 C 234.360 553.919,236.160 553.455,236.600 553.368 C 237.425 553.206,239.198 552.585,240.600 551.967 C 241.346 551.638,242.629 551.298,246.600 550.378 C 247.480 550.174,249.460 549.634,251.000 549.178 C 252.540 548.721,254.250 548.251,254.800 548.133 C 255.350 548.015,256.970 547.562,258.400 547.127 C 261.149 546.292,262.677 545.920,263.500 545.887 C 263.775 545.876,264.000 545.751,264.000 545.609 C 264.000 545.467,264.945 545.118,266.100 544.833 C 267.255 544.548,269.730 543.906,271.600 543.405 C 281.383 540.787,284.872 539.804,287.600 538.896 C 289.250 538.347,291.230 537.756,292.000 537.583 C 294.939 536.922,298.056 536.104,299.200 535.693 C 299.530 535.574,299.980 535.450,300.200 535.416 C 300.420 535.382,300.870 535.249,301.200 535.121 C 301.530 534.992,302.843 534.657,304.119 534.375 C 305.394 534.094,306.525 533.722,306.631 533.549 C 306.738 533.376,307.090 533.336,307.413 533.460 C 307.736 533.584,308.000 533.471,308.000 533.209 C 308.000 532.948,308.225 532.809,308.500 532.902 C 308.775 532.995,309.597 532.823,310.326 532.519 C 311.055 532.216,313.845 531.424,316.526 530.760 C 319.207 530.096,322.120 529.374,323.000 529.157 C 323.880 528.939,325.770 528.396,327.200 527.950 C 328.630 527.504,330.070 527.073,330.400 526.992 C 330.730 526.910,331.571 526.670,332.270 526.458 C 332.968 526.247,333.672 526.192,333.834 526.337 C 333.996 526.481,333.999 526.375,333.841 526.100 C 333.662 525.790,333.792 525.600,334.183 525.600 C 334.530 525.600,336.809 525.046,339.248 524.369 C 341.687 523.692,343.979 523.079,344.341 523.007 C 346.378 522.600,356.197 519.891,356.748 519.583 C 357.543 519.139,360.102 518.424,362.900 517.864 C 364.063 517.631,364.412 517.366,364.453 516.682 C 364.650 513.421,364.729 512.290,364.934 509.778 C 365.062 508.226,365.259 506.246,365.372 505.378 C 365.486 504.510,365.673 502.270,365.789 500.400 C 365.905 498.530,366.182 494.840,366.404 492.200 C 367.049 484.537,368.091 472.742,368.275 471.000 C 368.369 470.120,368.480 468.275,368.522 466.900 C 368.565 465.525,368.733 464.400,368.896 464.400 C 369.058 464.400,369.164 463.995,369.130 463.500 C 369.067 462.565,369.505 456.445,369.811 454.000 C 369.907 453.230,370.164 450.332,370.383 447.560 C 370.602 444.788,370.868 441.638,370.975 440.560 C 371.083 439.482,371.258 437.430,371.365 436.000 C 371.473 434.570,371.750 431.240,371.982 428.600 C 372.214 425.960,372.864 418.062,373.427 411.050 C 373.990 404.037,374.543 397.737,374.657 397.050 C 374.770 396.362,374.912 394.810,374.972 393.600 C 375.032 392.390,375.190 391.040,375.324 390.600 C 375.458 390.160,375.661 387.808,375.774 385.374 C 375.888 382.939,376.074 380.329,376.188 379.574 C 376.449 377.835,377.589 365.198,377.515 364.855 C 377.485 364.715,377.587 363.340,377.741 361.800 C 378.179 357.433,378.360 355.309,379.208 344.600 C 380.700 325.750,381.075 321.400,381.210 321.400 C 381.253 321.400,381.330 320.500,381.381 319.400 C 381.433 318.300,381.585 316.950,381.720 316.400 C 381.854 315.850,382.075 313.690,382.211 311.600 C 382.346 309.510,382.513 307.170,382.580 306.400 C 382.648 305.630,382.819 303.650,382.960 302.000 C 383.102 300.350,383.307 298.010,383.416 296.800 C 383.700 293.658,383.919 291.037,384.184 287.600 C 384.311 285.950,384.502 283.610,384.608 282.400 C 384.714 281.190,384.894 279.120,385.007 277.800 C 385.256 274.898,386.316 261.243,386.357 260.400 C 386.491 257.672,386.896 253.288,387.059 252.800 C 387.170 252.470,387.349 251.030,387.458 249.600 C 387.676 246.745,387.842 245.013,388.360 240.191 C 388.550 238.427,388.826 235.007,388.974 232.591 C 389.121 230.176,389.408 226.760,389.611 225.000 C 389.814 223.240,390.080 220.270,390.201 218.400 C 390.510 213.630,390.831 209.832,391.417 204.000 C 391.574 202.443,392.330 192.909,393.019 183.800 C 393.136 182.260,393.327 180.388,393.445 179.640 C 393.669 178.214,393.979 174.301,394.118 171.138 C 394.163 170.114,394.294 169.334,394.409 169.405 C 394.523 169.476,394.650 168.424,394.689 167.067 C 394.729 165.710,394.921 163.070,395.117 161.200 C 395.313 159.330,395.450 157.035,395.423 156.100 C 395.395 155.165,395.486 154.400,395.625 154.400 C 395.765 154.400,395.915 153.145,395.960 151.611 C 396.005 150.077,396.102 148.502,396.177 148.111 C 396.251 147.720,396.431 145.870,396.577 144.000 C 396.723 142.130,396.929 139.940,397.035 139.134 C 397.141 138.328,397.308 136.438,397.406 134.934 C 397.635 131.416,398.313 123.275,398.629 120.247 C 398.812 118.498,398.737 117.806,398.338 117.553 C 397.802 117.213,6.810 117.132,5.522 117.471 M359.595 152.700 C 359.593 153.085,359.143 158.350,358.597 164.400 C 355.265 201.294,354.387 211.996,354.563 213.600 C 354.676 214.634,354.637 214.994,354.472 214.445 C 354.306 213.893,353.555 220.722,352.690 230.645 C 351.868 240.080,350.472 255.900,349.590 265.800 C 348.707 275.700,348.085 284.430,348.207 285.200 C 348.380 286.290,348.331 286.467,347.982 286.000 C 347.646 285.548,347.579 286.288,347.714 289.000 C 347.812 290.980,347.780 292.060,347.642 291.400 C 347.501 290.722,346.830 296.634,346.099 305.000 C 345.388 313.140,344.080 327.990,343.191 338.000 C 342.302 348.010,341.668 356.704,341.781 357.320 C 341.895 357.936,341.849 358.354,341.679 358.249 C 341.510 358.144,340.694 365.830,339.866 375.329 C 338.396 392.193,337.436 403.045,335.402 425.800 C 334.851 431.960,333.861 443.120,333.202 450.600 C 332.543 458.080,331.655 468.070,331.230 472.800 C 330.805 477.530,330.234 484.071,329.962 487.335 C 329.510 492.745,329.392 493.298,328.633 493.583 C 328.175 493.755,323.901 494.954,319.134 496.246 C 314.341 497.545,310.677 498.730,310.934 498.897 C 311.191 499.063,310.787 499.081,310.038 498.937 C 309.120 498.761,308.761 498.814,308.938 499.100 C 309.107 499.372,308.890 499.444,308.338 499.300 C 307.751 499.146,307.566 499.221,307.758 499.532 C 307.933 499.816,307.834 499.911,307.497 499.782 C 307.198 499.667,304.264 500.299,300.976 501.185 C 297.689 502.072,292.531 503.455,289.514 504.260 C 286.497 505.064,284.122 505.873,284.235 506.057 C 284.349 506.240,284.197 506.297,283.899 506.182 C 283.600 506.068,280.936 506.627,277.978 507.426 C 275.020 508.224,270.475 509.450,267.877 510.149 C 265.280 510.849,263.239 511.506,263.342 511.611 C 263.445 511.715,262.880 511.815,262.087 511.833 C 261.293 511.852,260.574 512.078,260.488 512.336 C 260.402 512.594,260.183 512.713,260.000 512.600 C 259.818 512.488,256.999 513.115,253.735 513.995 C 250.471 514.874,244.977 516.351,241.526 517.277 C 237.935 518.240,235.354 519.126,235.491 519.348 C 235.627 519.568,235.458 519.631,235.098 519.493 C 234.100 519.110,214.207 524.458,214.684 524.982 C 214.858 525.172,214.771 525.196,214.490 525.034 C 213.753 524.609,211.535 525.171,211.862 525.701 C 212.034 525.979,211.889 526.043,211.458 525.878 C 210.902 525.664,206.356 526.672,202.838 527.788 L 202.000 528.054 202.000 340.027 L 202.000 152.000 280.800 152.000 C 355.583 152.000,359.600 152.036,359.595 152.700 M201.500 433.900 C 201.444 485.545,201.398 443.290,201.398 340.000 C 201.398 236.710,201.444 194.455,201.500 246.100 C 201.556 297.745,201.556 382.255,201.500 433.900 M186.499 337.800 C 186.426 437.173,186.276 475.600,185.960 475.600 C 185.720 475.600,184.595 475.336,183.462 475.014 C 182.328 474.691,180.875 474.338,180.232 474.228 C 179.590 474.118,178.960 473.882,178.832 473.703 C 178.705 473.523,178.195 473.402,177.700 473.434 C 177.205 473.465,176.800 473.325,176.800 473.122 C 176.800 472.919,176.600 472.876,176.355 473.028 C 176.111 473.179,175.796 473.123,175.655 472.903 C 175.515 472.683,174.230 472.230,172.800 471.897 C 167.569 470.678,155.394 467.447,155.200 467.227 C 155.090 467.102,154.820 466.992,154.600 466.983 C 154.380 466.973,153.390 466.721,152.400 466.424 C 151.410 466.126,150.330 465.844,150.000 465.797 C 149.670 465.750,149.130 465.601,148.800 465.466 C 148.470 465.332,146.400 464.754,144.200 464.182 C 138.612 462.730,138.775 462.771,137.000 462.391 C 136.120 462.203,134.590 461.753,133.600 461.392 C 132.610 461.030,131.440 460.670,131.000 460.590 C 130.560 460.511,129.930 460.374,129.600 460.285 C 129.270 460.197,128.460 459.993,127.800 459.831 C 127.140 459.670,126.240 459.386,125.800 459.200 C 125.360 459.014,123.200 458.404,121.000 457.844 C 115.334 456.402,108.525 454.561,106.321 453.876 C 105.288 453.554,104.333 453.400,104.199 453.534 C 104.066 453.668,103.831 453.588,103.678 453.356 C 103.444 453.002,91.155 449.637,85.206 448.299 C 84.219 448.077,83.049 447.669,82.606 447.392 C 82.163 447.116,81.170 446.779,80.400 446.643 C 79.630 446.508,78.640 446.313,78.200 446.211 C 76.096 445.723,73.741 445.105,73.200 444.898 C 72.870 444.772,72.510 444.649,72.400 444.625 C 72.290 444.601,71.345 444.337,70.300 444.038 L 68.400 443.496 68.400 421.348 C 68.400 409.167,68.535 399.198,68.700 399.196 C 69.441 399.187,80.681 402.089,81.366 402.467 C 81.787 402.699,82.597 402.946,83.166 403.016 C 85.202 403.265,85.803 403.404,86.005 403.670 C 86.118 403.819,87.378 404.231,88.805 404.587 C 90.232 404.943,92.030 405.412,92.800 405.629 C 93.570 405.846,94.470 406.093,94.800 406.178 C 95.130 406.263,96.120 406.520,97.000 406.748 C 97.880 406.976,100.130 407.534,102.000 407.988 C 103.870 408.442,105.940 409.031,106.600 409.297 C 107.260 409.564,107.980 409.818,108.200 409.864 C 108.420 409.909,110.400 410.424,112.600 411.007 C 118.267 412.508,121.618 413.389,126.159 414.571 C 128.337 415.137,130.317 415.756,130.559 415.946 C 130.802 416.136,131.315 416.312,131.700 416.337 C 132.085 416.363,132.850 416.410,133.400 416.442 C 133.950 416.474,134.400 416.629,134.400 416.786 C 134.400 416.944,135.435 417.302,136.700 417.582 C 137.965 417.862,139.270 418.233,139.600 418.406 C 139.930 418.579,141.056 418.849,142.101 419.006 L 144.003 419.291 143.901 309.646 L 143.800 200.000 165.200 200.000 L 186.600 200.000 186.499 337.800 " stroke="none" fill="#e4bc04" fill-rule="evenodd"></path><path id="path2" d="M201.398 340.000 C 201.398 443.290,201.444 485.545,201.500 433.900 C 201.556 382.255,201.556 297.745,201.500 246.100 C 201.444 194.455,201.398 236.710,201.398 340.000 " stroke="none" fill="#dcb404" fill-rule="evenodd"></path><path id="path3" d="M169.200 36.200 L 169.200 63.200 153.000 63.200 L 136.800 63.200 136.800 73.200 L 136.800 83.200 163.200 83.200 L 189.600 83.200 189.600 46.200 L 189.600 9.200 179.400 9.200 L 169.200 9.200 169.200 36.200 M199.200 32.200 L 199.200 55.200 224.000 55.200 L 248.800 55.200 248.800 59.200 L 248.800 63.200 224.000 63.200 L 199.200 63.200 199.200 73.200 L 199.200 83.200 234.200 83.200 L 269.200 83.200 269.200 60.200 L 269.200 37.200 244.500 37.200 L 219.800 37.200 219.800 33.400 L 219.800 29.600 244.500 29.600 L 269.200 29.600 269.200 19.400 L 269.200 9.200 234.200 9.200 L 199.200 9.200 199.200 32.200 " stroke="none" fill="#ffffff" fill-rule="evenodd"></path><path id="path4" d="M316.000 310.400 L 314.600 310.695 315.876 310.747 C 316.578 310.776,317.264 310.620,317.400 310.400 C 317.536 310.180,317.592 310.024,317.524 310.053 C 317.456 310.082,316.770 310.238,316.000 310.400 M283.300 315.476 C 283.685 315.576,284.315 315.576,284.700 315.476 C 285.085 315.375,284.770 315.293,284.000 315.293 C 283.230 315.293,282.915 315.375,283.300 315.476 M269.700 317.476 C 270.085 317.576,270.715 317.576,271.100 317.476 C 271.485 317.375,271.170 317.293,270.400 317.293 C 269.630 317.293,269.315 317.375,269.700 317.476 " stroke="none" fill="#dcbc04" fill-rule="evenodd"></path></g></svg>