<svg width="512" height="146" viewBox="0 0 512 146" fill="none" xmlns="http://www.w3.org/2000/svg">
<path fill-rule="evenodd" clip-rule="evenodd" d="M476.713 60.26C476.253 60.352 475.791 61.367 475.791 61.92C475.699 65.612 475.607 75.394 475.607 82.038C475.607 82.223 475.883 82.592 476.16 82.592C477.544 82.684 480.866 82.776 483.727 82.776C487.695 82.776 490.002 82.223 491.295 81.67C494.616 80.008 496.185 76.409 496.185 72.44C496.185 63.49 489.91 60.075 480.589 60.075C479.943 59.983 478.099 59.983 476.713 60.26V60.26ZM500.523 101.51C500.523 92.374 493.786 87.298 481.605 87.298C481.051 87.298 477.175 87.206 476.252 87.39C475.975 87.483 475.607 87.668 475.607 87.945C475.607 94.496 475.514 104.925 475.791 108.985C475.975 110.738 477.268 113.23 478.837 113.968C480.497 114.891 484.281 115.075 486.865 115.075C494.155 115.075 500.523 111.015 500.523 101.51V101.51ZM457.889 55.185C458.811 55.185 461.579 55.461 468.685 55.461C475.422 55.461 480.774 55.277 487.326 55.277C495.354 55.277 506.428 58.137 506.428 70.134C506.428 76.04 502.275 80.747 496.831 83.054C496.555 83.146 496.555 83.33 496.831 83.422C504.582 85.361 511.412 90.159 511.412 99.202C511.412 108.062 505.875 113.691 497.846 117.198C492.955 119.32 486.865 120.058 480.682 120.058C475.975 120.058 463.333 119.505 456.32 119.69C455.582 119.412 456.966 116.09 457.611 115.537C459.273 115.444 460.564 115.352 462.318 114.798C464.81 114.153 465.086 113.414 465.455 109.631C465.64 106.401 465.64 94.957 465.64 86.837C465.64 75.671 465.733 68.104 465.64 64.413C465.548 61.553 464.533 60.629 462.503 60.075C460.933 59.799 458.35 59.429 456.227 59.153C455.765 58.691 457.334 55.553 457.889 55.185ZM404.641 112.584C406.857 114.336 411.194 115.074 415.07 115.074C420.053 115.074 425.036 114.153 429.835 109.814C434.726 105.386 438.14 98.557 438.14 87.668C438.14 77.239 434.172 68.749 426.051 63.767C421.437 60.905 415.531 59.707 408.702 59.707C406.672 59.707 404.734 59.799 403.535 60.352C403.257 60.537 402.612 61.367 402.612 61.828C402.427 63.674 402.427 77.885 402.427 86.191C402.427 94.773 402.427 106.77 402.612 108.154C402.612 109.539 403.257 111.661 404.642 112.584H404.641ZM383.693 55.184C385.447 55.184 392.183 55.461 395.413 55.461C401.228 55.461 405.38 55.185 416.361 55.185C425.589 55.185 433.341 57.676 438.878 62.382C445.614 68.196 449.122 76.225 449.122 86.006C449.122 99.941 442.754 107.97 436.386 112.584C430.02 117.29 421.714 120.058 409.902 120.058C403.627 120.058 392.83 119.874 383.878 119.781H383.786C383.325 118.951 384.524 115.721 385.262 115.629C387.662 115.352 388.308 115.259 389.508 114.799C391.445 114.06 391.815 113.045 392.092 109.631C392.368 103.263 392.276 95.604 392.276 86.929C392.276 80.747 392.368 68.657 392.183 64.781C391.907 61.552 390.523 60.721 387.754 60.167C386.37 59.891 384.524 59.521 381.941 59.245C381.571 58.598 383.232 55.738 383.693 55.185V55.184Z" fill="#8E714E"/>
<path fill-rule="evenodd" clip-rule="evenodd" d="M272.033 116.182C269.726 115.905 268.065 115.537 266.035 114.614C265.758 114.429 265.296 113.507 265.296 113.137C265.112 109.907 265.112 100.679 265.112 94.497C265.112 89.513 264.282 85.176 262.159 82.131C259.667 78.623 256.069 76.594 251.454 76.594C247.394 76.594 241.949 79.362 237.427 83.238C237.335 83.33 236.597 83.977 236.689 82.961C236.689 81.946 236.874 79.916 236.966 78.531C237.059 77.239 236.32 76.594 236.32 76.594C233.367 78.07 225.062 80.008 222.016 80.284C219.802 80.747 219.248 82.869 221.556 83.607H221.648C224.138 84.345 225.8 85.176 227.091 86.007C228.014 86.745 227.922 87.76 227.922 88.591C228.014 95.511 228.014 106.124 227.738 111.938C227.646 114.245 227 115.075 225.338 115.444L225.523 115.352C224.231 115.629 223.216 115.905 221.647 116.09C221.093 116.644 221.093 119.597 221.647 120.243C222.662 120.243 228.014 119.966 232.445 119.966C238.535 119.966 241.673 120.243 243.241 120.243C243.887 119.505 244.072 116.736 243.703 116.09C241.949 115.998 240.657 115.814 239.458 115.444C237.797 115.074 237.335 114.245 237.242 112.307C237.059 107.415 237.059 97.08 237.059 90.067C237.059 88.129 237.612 87.206 238.165 86.652C240.288 84.807 243.703 83.515 246.748 83.515C249.701 83.515 251.638 84.438 253.115 85.638C255.145 87.298 255.791 89.698 256.068 91.451C256.529 95.419 256.345 103.263 256.345 110.092C256.345 113.783 256.068 114.706 254.685 115.167C254.038 115.444 252.377 115.814 250.439 115.997C249.793 116.644 249.978 119.505 250.439 120.151C253.115 120.151 256.253 119.874 260.867 119.874C266.588 119.874 270.28 120.151 271.757 120.151C272.217 119.597 272.402 116.921 272.033 116.182V116.182ZM297.595 80.932C292.705 80.932 289.659 84.715 289.659 90.62C289.659 96.619 292.335 103.54 299.902 103.54C301.194 103.54 303.594 102.986 304.7 101.694C306.454 100.034 307.654 96.711 307.654 93.204C307.654 85.545 303.87 80.931 297.595 80.931V80.932ZM296.949 121.719C295.104 121.719 293.811 122.273 292.981 122.735C289.105 125.225 287.352 127.625 287.352 130.487C287.352 133.162 288.367 135.284 290.582 137.13C293.258 139.437 296.949 140.545 301.655 140.545C311.068 140.545 315.221 135.469 315.221 130.487C315.221 126.979 313.467 124.672 309.869 123.381C307.285 122.273 302.579 121.719 296.949 121.719V121.719ZM297.595 145.713C291.966 145.713 287.905 144.513 284.399 141.837C280.984 139.253 279.508 135.377 279.508 132.701C279.508 131.963 279.693 129.932 281.354 128.087C282.368 126.979 284.584 124.857 289.844 121.258C290.028 121.166 290.12 121.074 290.12 120.888C290.12 120.704 289.935 120.519 289.751 120.428C285.414 118.767 284.122 116.09 283.752 114.614V114.429C283.661 113.875 283.476 113.322 284.307 112.768C284.953 112.307 285.876 111.753 286.89 111.108C288.459 110.184 290.12 109.169 291.135 108.338C291.32 108.154 291.32 107.97 291.32 107.785C291.32 107.6 291.135 107.415 290.95 107.324C284.492 105.201 281.262 100.402 281.262 93.204C281.262 88.498 283.384 84.253 287.167 81.577C289.751 79.547 296.211 77.055 300.456 77.055H300.733C305.07 77.147 307.469 78.07 310.883 79.27C312.729 79.916 314.483 80.192 316.883 80.192C320.481 80.192 322.05 79.085 323.341 77.794C323.434 77.978 323.619 78.44 323.711 79.639C323.803 80.839 323.434 82.592 322.511 83.884C321.773 84.899 320.112 85.638 318.451 85.638H317.989C316.328 85.453 315.589 85.268 315.589 85.268L315.221 85.453C315.129 85.638 315.221 85.822 315.313 86.099L315.406 86.284C315.59 87.114 315.959 89.605 315.959 90.252C315.959 97.819 312.914 101.14 309.684 103.632C306.546 105.939 302.948 107.415 298.887 107.785C298.795 107.785 298.427 107.785 297.595 107.877C297.134 107.877 296.488 107.97 296.395 107.97H296.303C295.565 108.154 293.72 109.077 293.72 110.645C293.72 112.029 294.55 113.691 298.518 113.968C299.348 114.06 300.178 114.06 301.102 114.153C306.362 114.521 312.914 114.983 315.959 115.998C320.204 117.566 322.88 121.35 322.88 125.872C322.88 132.702 317.99 139.069 309.869 143.036C305.901 144.79 301.932 145.713 297.595 145.713V145.713ZM350.195 81.393C348.258 81.393 346.504 81.853 345.212 82.776C341.614 84.991 339.768 89.421 339.768 95.88C339.768 107.97 345.858 116.46 354.533 116.46C357.117 116.46 359.147 115.721 360.9 114.245C363.576 112.029 364.961 107.6 364.961 101.417C364.961 89.421 358.962 81.392 350.196 81.392L350.195 81.393ZM351.857 120.889C336.169 120.889 330.54 109.354 330.54 98.557C330.54 90.99 333.585 85.176 339.675 81.023C344.013 78.347 349.181 76.871 353.795 76.871C365.791 76.871 374.189 85.453 374.189 97.819C374.189 106.216 370.867 112.86 364.499 116.921C361.454 118.951 356.194 120.889 351.856 120.889H351.857V120.889ZM187.411 81.392C185.473 81.392 183.72 81.853 182.427 82.776C178.829 84.991 176.983 89.421 176.983 95.88C176.983 107.97 183.073 116.46 191.748 116.46C194.332 116.46 196.362 115.721 198.116 114.245C200.791 112.029 202.176 107.6 202.176 101.417C202.176 89.421 196.27 81.392 187.411 81.392ZM189.072 120.889C173.384 120.889 167.755 109.354 167.755 98.557C167.755 90.99 170.8 85.176 176.89 81.023C181.228 78.347 186.396 76.871 191.01 76.871C203.007 76.871 211.404 85.453 211.404 97.819C211.404 106.216 208.082 112.86 201.714 116.921C198.761 118.951 193.501 120.889 189.072 120.889ZM83.5941 119.966C83.4091 119.69 83.2241 118.859 83.3171 117.844C83.3171 117.105 83.5021 116.644 83.5941 116.46C85.5321 116.182 86.5471 115.905 87.6541 115.629C89.5001 115.167 90.2381 114.153 90.3301 111.846C90.6081 106.309 90.6081 95.788 90.5151 88.498V88.313C90.5151 87.483 90.5151 86.467 89.5001 85.729C88.0231 84.807 86.2701 83.977 83.9631 83.329C83.1331 83.054 82.5791 82.592 82.6711 82.039C82.6711 81.485 83.2251 80.839 84.4251 80.654C87.4701 80.377 95.4051 78.44 98.5431 77.055C98.7281 77.239 99.0051 77.794 99.0051 78.532L98.9131 79.546C98.8201 80.562 98.7281 81.762 98.7281 82.961C98.7281 83.33 99.0981 83.607 99.4661 83.607C99.6511 83.607 99.8361 83.515 100.02 83.422C105.926 78.808 111.278 77.147 114.046 77.147C118.569 77.147 122.076 79.27 124.752 83.699C124.936 83.977 125.121 84.069 125.398 84.069C125.582 84.069 125.858 83.977 125.951 83.792C131.396 79.639 136.841 77.147 140.439 77.147C149.021 77.147 154.097 83.515 154.097 94.312C154.097 97.357 154.097 101.325 154.005 104.925C154.005 108.154 153.913 111.107 153.913 113.23C153.913 113.69 154.558 115.167 155.573 115.444C156.865 116.09 158.619 116.367 160.926 116.736H161.018C161.203 117.382 160.834 119.781 160.465 120.243C159.911 120.243 159.08 120.243 158.158 120.151C155.822 120.029 153.483 119.967 151.144 119.966C145.423 119.966 142.47 120.058 139.608 120.243C139.425 119.505 139.332 117.29 139.608 116.736C141.27 116.46 142.1 116.182 143.116 115.906C144.962 115.352 145.423 114.521 145.516 112.122C145.516 110.369 145.884 95.419 145.33 91.82C144.777 88.129 142.008 83.792 135.917 83.792C133.61 83.792 130.012 84.715 126.505 87.39C126.321 87.575 126.135 88.036 126.135 88.313V88.406C126.505 90.343 126.505 92.559 126.505 95.973V101.971C126.505 106.124 126.412 110 126.505 112.952C126.505 114.983 127.705 115.444 128.72 115.814C129.274 115.905 129.642 115.998 130.104 116.09C130.934 116.275 131.765 116.46 133.057 116.736C133.242 117.106 133.242 118.305 132.965 119.32C132.872 119.874 132.687 120.15 132.595 120.243C129.458 120.151 126.228 120.058 121.522 120.058C120.138 120.058 117.738 120.151 115.708 120.151C114.046 120.151 112.478 120.243 111.556 120.243C111.463 120.058 111.278 119.413 111.278 118.397C111.278 117.567 111.463 116.921 111.648 116.736C112.109 116.644 112.478 116.552 112.94 116.552C114.046 116.367 114.97 116.182 115.892 115.998C117.462 115.537 118.015 114.706 118.107 112.676C118.384 108.062 118.661 94.866 118.015 91.543C116.908 86.191 113.863 83.515 108.971 83.515C106.111 83.515 102.511 84.899 99.5591 87.115C99.0971 87.483 98.7281 88.405 98.7281 89.236V94.681C98.7281 101.325 98.7281 109.631 98.8201 113.23C98.9131 114.336 99.2811 115.629 101.404 116.09C101.866 116.182 102.604 116.367 103.527 116.46L105.187 116.736C105.373 117.29 105.28 119.505 104.911 120.243C103.988 120.243 102.881 120.151 101.588 120.151C99.6511 120.058 97.1591 119.966 94.3911 119.966C91.1611 119.966 88.8541 120.058 87.0081 120.151C85.7161 119.966 84.7011 119.966 83.5941 119.966V119.966Z" fill="#442D22"/>
<path fill-rule="evenodd" clip-rule="evenodd" d="M35.053 142.114L31.27 140.821C31.27 140.821 31.732 121.535 24.81 120.151C20.197 114.798 25.55 -106.862 42.16 119.412C42.16 119.412 36.438 122.272 35.423 127.164C34.315 131.963 35.053 142.114 35.053 142.114V142.114Z" fill="white"/>
<path fill-rule="evenodd" clip-rule="evenodd" d="M35.053 142.114L31.27 140.821C31.27 140.821 31.732 121.535 24.81 120.151C20.197 114.798 25.55 -106.862 42.16 119.412C42.16 119.412 36.438 122.272 35.423 127.164C34.315 131.963 35.053 142.114 35.053 142.114V142.114Z" fill="#A6A385"/>
<path fill-rule="evenodd" clip-rule="evenodd" d="M37.084 123.473C37.084 123.473 70.214 101.694 62.461 56.383C54.987 23.44 37.361 12.643 35.423 8.49C33.301 5.53699 31.27 0.369995 31.27 0.369995L32.655 92.004C32.655 92.097 29.794 120.058 37.085 123.474" fill="white"/>
<path fill-rule="evenodd" clip-rule="evenodd" d="M37.084 123.473C37.084 123.473 70.214 101.694 62.461 56.383C54.987 23.44 37.361 12.643 35.423 8.49C33.301 5.53699 31.27 0.369995 31.27 0.369995L32.655 92.004C32.655 92.097 29.794 120.058 37.085 123.474" fill="#499D4A"/>
<path fill-rule="evenodd" clip-rule="evenodd" d="M29.333 124.672C29.333 124.672 -1.76696 103.447 0.0790442 66.074C1.83204 28.7 23.795 10.336 28.04 7.014C30.809 4.061 30.901 2.953 31.086 0C33.024 4.153 32.655 62.106 32.931 68.934C33.761 95.234 31.455 119.69 29.333 124.672Z" fill="white"/>
<path fill-rule="evenodd" clip-rule="evenodd" d="M29.333 124.672C29.333 124.672 -1.76696 103.447 0.0790442 66.074C1.83204 28.7 23.795 10.336 28.04 7.014C30.809 4.061 30.901 2.953 31.086 0C33.024 4.153 32.655 62.106 32.931 68.934C33.761 95.234 31.455 119.69 29.333 124.672Z" fill="#58AA50"/>
</svg>
