<svg width="334" height="334" viewBox="0 0 334 334" fill="none" xmlns="http://www.w3.org/2000/svg">
<path d="M178.996 9.29258C91.9964 -1.90742 12.3964 59.5926 1.29645 146.593C-9.80355 233.593 51.5965 313.193 138.596 324.293C225.596 335.493 305.196 273.993 316.296 186.993C316.296 186.893 316.296 186.793 316.296 186.793C327.396 99.7926 265.896 20.3926 178.996 9.29258Z" fill="white"/>
<path d="M187.672 1.39252C96.4724 -10.4075 13.0724 54.0925 1.37239 145.293C-10.3276 236.493 54.0724 319.993 145.272 331.693C236.472 343.393 319.872 278.993 331.672 187.793C343.372 96.5925 278.972 13.0925 187.672 1.39252C187.772 1.39252 187.772 1.39252 187.672 1.39252ZM221.972 105.193C218.872 105.293 215.972 106.493 213.772 108.693L151.972 170.493L138.772 157.293C199.572 96.5925 210.672 95.9925 221.972 105.193ZM154.472 172.693L216.072 111.493C219.472 108.193 224.872 108.193 228.272 111.493C229.972 113.193 230.872 115.493 230.772 117.793C230.672 120.193 229.672 122.393 227.872 123.993L162.772 181.393L154.472 172.693ZM159.072 181.993L143.772 185.893C143.472 186.093 143.172 186.093 142.872 185.893C142.672 185.593 142.672 185.193 142.872 184.893L152.172 175.593L159.072 181.993ZM120.072 175.593L136.372 159.293L148.672 171.893L120.772 177.893C120.172 177.993 119.572 177.593 119.472 176.993C119.372 176.593 119.472 176.293 119.772 175.993L120.072 175.593ZM69.5724 260.293C69.1724 260.193 68.7724 259.893 68.6724 259.593C68.5724 259.193 68.5724 258.793 68.6724 258.493L81.7724 245.293L98.7724 262.193L69.5724 260.293ZM103.172 242.793C101.872 243.493 101.172 244.893 101.472 246.293L104.272 258.293C104.472 259.093 104.072 259.893 103.472 260.293C102.872 260.793 101.972 260.793 101.472 260.293L84.4724 242.793L136.672 190.493L161.972 185.093L174.072 197.193C152.472 215.193 128.672 230.493 103.272 242.593V242.793H103.172ZM176.572 195.193L164.972 183.593L230.072 126.293C230.672 125.793 231.272 125.193 231.772 124.493C229.672 143.093 203.472 169.493 176.572 195.193ZM227.372 105.493C217.672 95.3925 218.072 79.3925 228.172 69.6925C237.372 60.8925 251.572 60.2925 261.472 68.2925L239.072 90.5925C238.472 91.2925 238.472 92.2925 239.072 92.9925L256.472 110.293C246.672 115.093 234.872 113.093 227.272 105.293L227.372 105.493ZM263.072 105.493C261.872 106.593 260.672 107.693 259.272 108.593L242.572 91.8925L263.872 70.5925C273.072 80.4925 272.772 95.8925 263.072 105.493Z" fill="#FF6C37"/>
</svg>
